<svg width="1280" height="720" xmlns="http://www.w3.org/2000/svg" xmlns:xlink="http://www.w3.org/1999/xlink" overflow="hidden"><defs><clipPath id="clip0"><rect x="0" y="0" width="1280" height="720"/></clipPath><clipPath id="clip1"><rect x="768" y="283" width="48" height="54"/></clipPath><clipPath id="clip2"><rect x="768" y="283" width="48" height="54"/></clipPath><clipPath id="clip3"><rect x="768" y="283" width="48" height="54"/></clipPath><clipPath id="clip4"><path d="M303.355 255.185 391.193 268.503 377.874 356.341 290.037 343.022Z" fill-rule="evenodd" clip-rule="evenodd"/></clipPath><clipPath id="clip5"><path d="M303.355 255.185 391.193 268.503 377.874 356.341 290.037 343.022Z" fill-rule="evenodd" clip-rule="evenodd"/></clipPath><clipPath id="clip6"><path d="M303.355 255.185 391.193 268.503 377.874 356.341 290.037 343.022Z" fill-rule="evenodd" clip-rule="evenodd"/></clipPath></defs><g clip-path="url(#clip0)"><rect x="0" y="0" width="1280" height="720" fill="#FFFFFF"/><text font-family="Arial,Arial_MSFontService,sans-serif" font-weight="400" font-size="11" transform="matrix(1 0 0 1 0 717)">INTERNAL</text><path d="M339.706 393.847C335.808 393.847 333.859 394.815 333.859 396.753 333.859 398.728 334.89 400.557 336.951 402.239 339.013 403.921 340.977 404.762 342.844 404.762 346.689 404.762 350.536 401.642 354.384 395.4 346.878 394.364 341.985 393.847 339.706 393.847ZM358.54 340.481C354.605 340.481 350.097 344.871 345.017 353.651 339.937 362.432 335.694 372.274 332.287 383.178 332.342 382.918 333.572 382.787 335.978 382.787 339.601 382.787 345.256 383.405 352.944 384.64L357.987 385.334C359.679 381.111 361.104 376.01 362.261 370.031 363.418 364.052 363.997 358.636 363.997 353.784 363.997 349.407 363.488 346.096 362.472 343.85 361.455 341.604 360.145 340.481 358.54 340.481ZM322.637 325.89C325.323 325.89 327.897 326.315 330.359 327.165 332.822 328.015 334.053 329.348 334.053 331.162 332.197 340.046 331.085 352.021 330.719 367.087 331.933 355.752 335.53 346.477 341.508 339.262 347.486 332.048 354.537 328.44 362.662 328.44 367.519 328.44 372.124 329.81 376.48 332.55 380.835 335.289 384.401 339.124 387.178 344.055 389.955 348.985 391.344 354.582 391.344 360.847 391.344 370.77 388.662 379.39 383.3 386.709 397.304 385.634 405.873 376.947 409.006 360.647 409.883 359.188 411.047 358.459 412.497 358.459 414.132 358.459 415.626 359.181 416.98 360.625 418.333 362.069 419.009 363.758 419.009 365.694 416.497 377.702 411.485 386.083 403.973 390.837 396.462 395.592 387.858 397.969 378.162 397.969L377.153 397.969C373.061 403.05 368.183 407.263 362.517 410.608 356.851 413.952 351.406 415.625 346.181 415.625 342.746 415.625 339.37 414.92 336.055 413.511 332.739 412.101 331.092 410.386 331.112 408.365 332 423.595 333.569 436.31 335.819 446.512 335.579 448.696 333.854 450.437 330.642 451.737 327.431 453.037 324.238 453.687 321.065 453.687 315.313 453.687 311.718 451.957 310.278 448.497 307.918 442.595 306.176 434.231 305.055 423.406 303.933 412.581 303.372 400.95 303.372 388.512 303.372 377.431 303.799 367.087 304.655 357.481 305.51 347.875 306.813 339.972 308.565 333.772 309.495 331.136 311.307 329.164 314.003 327.855 316.699 326.545 319.577 325.89 322.637 325.89Z" fill="#5B9BD5" fill-rule="evenodd"/><path d="M339.678 394.346 337.289 394.532 335.57 395.047 334.697 395.818 334.394 396.829 334.558 398.09 335.134 399.415 336.014 400.646 337.318 401.89 340.2 403.692 342.89 404.277 345.576 403.751 348.321 402.08 351.123 399.217 353.505 395.799 349.193 395.22 345.082 394.785 341.898 394.472ZM339.735 393.348 341.996 393.477 345.187 393.79 349.326 394.229 354.451 394.917C354.624 394.94 354.772 395.051 354.842 395.211 354.912 395.371 354.894 395.555 354.794 395.698L351.919 399.823C351.904 399.846 351.886 399.867 351.867 399.887L348.992 402.825C348.962 402.854 348.93 402.88 348.894 402.902L346.019 404.652C345.969 404.683 345.913 404.704 345.855 404.716L342.98 405.278C342.913 405.291 342.845 405.29 342.778 405.276L339.903 404.651C339.847 404.639 339.793 404.617 339.744 404.586L336.744 402.711C336.715 402.693 336.689 402.672 336.664 402.649L335.289 401.337C335.266 401.315 335.246 401.291 335.227 401.265L334.29 399.953C334.27 399.924 334.252 399.894 334.238 399.862L333.613 398.424C333.595 398.381 333.582 398.336 333.576 398.29L333.388 396.852C333.379 396.782 333.385 396.711 333.405 396.644L333.78 395.394C333.807 395.304 333.858 395.224 333.928 395.162L334.991 394.225C335.045 394.177 335.109 394.142 335.178 394.121L337.053 393.558C337.088 393.548 337.123 393.542 337.159 393.539ZM358.532 340.989 357.207 341.209 355.741 341.796 354.188 342.811 352.591 344.224 350.869 346.01 349.154 348.219 347.361 350.879 345.498 353.923 341.824 360.713 338.526 367.872 335.473 375.413 333.116 382.43 333.17 382.42 334.357 382.351 335.99 382.288 339.154 382.413 342.996 382.79 347.632 383.354 353.021 384.168 357.665 384.798 359.847 378.193 361.772 369.924 363.078 361.461 363.51 353.759 363.447 350.735 363.138 348.095 362.713 345.858 362.054 344.06 361.287 342.704 360.432 341.735 359.572 341.197ZM358.459 339.988C358.518 339.978 358.579 339.979 358.639 339.991L359.857 340.235C359.917 340.246 359.973 340.269 360.024 340.301L361.024 340.926C361.065 340.951 361.102 340.983 361.134 341.019L362.072 342.082C362.095 342.108 362.115 342.136 362.132 342.166L362.945 343.604C362.958 343.627 362.969 343.652 362.979 343.678L363.666 345.553C363.676 345.578 363.683 345.605 363.688 345.632L364.131 347.98 364.447 350.715 364.508 353.816 364.066 361.614 362.746 370.151 360.797 378.507 358.484 385.507C358.408 385.735 358.181 385.878 357.942 385.845L352.872 385.157 347.511 384.346 342.898 383.785 339.114 383.412 336.028 383.287 334.412 383.349 333.349 383.404 332.777 383.508 332.622 383.625C332.447 383.756 332.206 383.758 332.029 383.63 331.851 383.502 331.778 383.273 331.848 383.066L334.546 375.037 337.618 367.453 340.945 360.237 344.645 353.401 346.532 350.32 348.365 347.605 350.15 345.315 351.928 343.475 353.553 342.038C353.571 342.022 353.59 342.007 353.611 341.994L355.236 340.931C355.263 340.913 355.293 340.898 355.324 340.886L356.886 340.261C356.919 340.247 356.954 340.237 356.99 340.232ZM322.646 326.393 318.373 326.902 314.244 328.36 311.01 330.695 309.038 333.982 307.813 338.818 306.755 344.418 305.882 350.712 305.196 357.571 304.197 372.485 303.884 388.525 304.32 406.563 305.568 423.352 306.501 431.009 307.746 437.735 309.107 443.499 310.773 448.313 312.188 450.435 314.3 451.96 317.294 452.919 321.066 453.223 325.786 452.732 330.512 451.321 332.551 450.301 334.019 449.126 334.927 447.878 335.308 446.516 333.764 438.484 332.449 429.4 331.448 419.387 330.636 408.449C330.616 408.188 330.803 407.955 331.062 407.918 331.322 407.88 331.567 408.05 331.623 408.306L331.913 409.643 332.754 410.819 334.162 411.993 336.265 413.074 341.174 414.67 346.202 415.16 350.12 414.854 354.02 413.945 358.093 412.405 362.309 410.235 370.118 404.596 376.837 397.628C376.931 397.53 377.061 397.475 377.197 397.475L378.166 397.476 385.163 397.047 391.813 395.742 397.993 393.517 403.73 390.432 408.833 386.251 412.954 380.777 416.227 373.862 418.496 365.702 418.035 363.223 416.634 361.005 414.665 359.499 412.522 358.992 410.84 359.48 409.462 360.913 408.039 366.591 406.101 371.654C406.092 371.677 406.082 371.699 406.07 371.721L403.632 376.033C403.618 376.058 403.603 376.081 403.585 376.102L400.648 379.727C400.626 379.753 400.603 379.777 400.577 379.799L397.077 382.674C397.053 382.693 397.028 382.71 397.002 382.724L393.065 384.912C393.038 384.927 393.009 384.939 392.98 384.949L388.48 386.449C388.453 386.458 388.424 386.465 388.396 386.469L383.396 387.219C383.204 387.248 383.013 387.163 382.905 387.002 382.798 386.84 382.794 386.631 382.895 386.465L386.375 380.748 388.906 374.636 390.388 367.965 390.885 360.877 390.643 356.38 389.846 352.129 388.558 348.127 386.773 344.365 384.626 340.921 382.101 337.899 379.342 335.256 376.269 333.038 372.989 331.243 369.709 330.024 366.248 329.221 362.709 328.977 356.938 329.652 351.548 331.612 346.516 334.926 341.896 339.607 337.944 345.351 334.851 351.844 332.627 359.058 331.252 367.183C331.208 367.443 330.97 367.625 330.707 367.597 330.445 367.57 330.249 367.343 330.26 367.079L330.698 356.376 331.387 346.795 332.329 338.327 333.563 331.169 333.35 330.104 332.756 329.185 331.746 328.343 330.255 327.708 326.548 326.719ZM322.679 325.392 326.676 325.727C326.705 325.729 326.735 325.734 326.763 325.742L330.513 326.742 332.204 327.452C332.249 327.471 332.292 327.497 332.329 327.528L333.454 328.466C333.493 328.498 333.527 328.536 333.554 328.578L334.242 329.641C334.276 329.694 334.3 329.753 334.312 329.814L334.562 331.064C334.574 331.125 334.575 331.187 334.564 331.247L333.314 338.497 332.381 346.905 331.695 356.448 331.581 359.248 331.641 358.891 333.906 351.515C333.914 351.492 333.922 351.469 333.933 351.447L337.058 344.885C337.069 344.861 337.082 344.838 337.097 344.816L341.097 339.004C341.114 338.98 341.133 338.957 341.153 338.936L345.841 334.186C345.865 334.161 345.893 334.139 345.922 334.12L351.047 330.745C351.079 330.723 351.114 330.706 351.151 330.692L356.651 328.692C356.687 328.679 356.725 328.67 356.764 328.666L362.639 327.978C362.669 327.975 362.7 327.974 362.731 327.976L366.356 328.226C366.383 328.228 366.409 328.232 366.435 328.238L369.935 329.05 373.37 330.318C373.393 330.327 373.415 330.337 373.437 330.349L376.749 332.161 379.926 334.444 382.792 337.176 385.393 340.279 387.621 343.835 389.461 347.698 390.798 351.821 391.626 356.195 391.883 360.823 391.383 368.072C391.381 368.097 391.378 368.122 391.372 368.146L389.872 374.896C389.866 374.924 389.857 374.952 389.846 374.979L387.284 381.166C387.274 381.19 387.262 381.213 387.249 381.235L384.305 386.072 388.205 385.487 392.62 384.015 396.477 381.872 399.903 379.058 402.782 375.505 405.181 371.261 407.105 366.234 408.524 360.541C408.545 360.456 408.588 360.379 408.649 360.316L410.211 358.691C410.272 358.628 410.348 358.582 410.432 358.557L412.37 357.995C412.453 357.971 412.54 357.968 412.624 357.988L414.999 358.551C415.068 358.567 415.132 358.597 415.188 358.64L417.313 360.265C417.36 360.301 417.4 360.345 417.432 360.395L418.932 362.77C418.966 362.824 418.989 362.884 419.001 362.946L419.501 365.633C419.515 365.708 419.511 365.785 419.491 365.859L417.178 374.171C417.171 374.199 417.161 374.225 417.149 374.251L413.836 381.251C413.822 381.282 413.804 381.311 413.784 381.338L409.596 386.901C409.572 386.932 409.544 386.961 409.514 386.987L404.326 391.237C404.301 391.257 404.274 391.275 404.246 391.29L398.434 394.415C398.412 394.427 398.389 394.437 398.366 394.445L392.116 396.695C392.092 396.704 392.068 396.711 392.043 396.715L385.356 398.028 378.228 398.474 377.409 398.475 370.807 405.322C370.786 405.343 370.764 405.363 370.74 405.38L362.864 411.068C362.844 411.082 362.823 411.095 362.801 411.107L358.551 413.294 354.374 414.88 350.311 415.837C350.286 415.842 350.261 415.846 350.236 415.848L346.236 416.161C346.207 416.163 346.177 416.163 346.148 416.16L341.023 415.66C340.987 415.656 340.952 415.649 340.917 415.638L335.917 414.013C335.892 414.005 335.867 413.994 335.843 413.982L333.656 412.857C333.623 412.84 333.592 412.82 333.564 412.796L332.064 411.546C332.031 411.519 332.002 411.488 331.977 411.453L331.848 411.272 332.445 419.313 333.444 429.3 334.754 438.341 336.313 446.443C336.327 446.519 336.324 446.598 336.303 446.672L335.866 448.235C335.85 448.292 335.824 448.346 335.789 448.394L334.789 449.769C334.762 449.805 334.731 449.837 334.697 449.865L333.134 451.115C333.107 451.137 333.077 451.156 333.045 451.172L330.92 452.235C330.895 452.247 330.868 452.258 330.84 452.266L326.027 453.704C325.997 453.713 325.967 453.719 325.936 453.722L321.123 454.222C321.093 454.225 321.062 454.226 321.032 454.223L317.157 453.911C317.118 453.908 317.081 453.9 317.044 453.889L313.919 452.889C313.869 452.872 313.822 452.849 313.779 452.818L311.529 451.193C311.481 451.158 311.439 451.114 311.406 451.065L309.906 448.815C309.882 448.779 309.863 448.741 309.849 448.701L308.162 443.826 306.773 437.965 305.518 431.191 304.575 423.473 303.323 406.637 302.884 388.549 303.197 372.465 304.198 357.504 304.887 350.613 305.764 344.281 306.83 338.632 308.087 333.665C308.099 333.617 308.118 333.572 308.143 333.53L310.206 330.093C310.24 330.035 310.287 329.984 310.341 329.945L313.716 327.507C313.755 327.479 313.798 327.457 313.843 327.441L318.093 325.941C318.128 325.929 318.164 325.92 318.2 325.916L322.578 325.394C322.612 325.39 322.645 325.389 322.679 325.392Z" fill="#5B9BD5" fill-rule="evenodd"/><path d="M335.409 389.55C331.511 389.55 329.562 390.519 329.562 392.456 329.562 394.431 330.593 396.26 332.655 397.942 334.716 399.624 336.68 400.466 338.547 400.466 342.393 400.466 346.24 397.345 350.087 391.103 342.581 390.068 337.689 389.55 335.409 389.55ZM354.244 336.184C350.308 336.184 345.8 340.574 340.72 349.355 335.64 358.135 331.397 367.977 327.991 378.881 328.045 378.621 329.275 378.491 331.681 378.491 335.304 378.491 340.959 379.108 348.647 380.344L353.691 381.037C355.382 376.815 356.807 371.714 357.964 365.734 359.121 359.755 359.7 354.34 359.7 349.487 359.7 345.11 359.192 341.799 358.175 339.553 357.158 337.307 355.848 336.184 354.244 336.184ZM318.341 321.594C321.026 321.594 323.6 322.019 326.062 322.869 328.525 323.719 329.756 325.051 329.756 326.866 327.9 335.749 326.789 347.724 326.422 362.791 327.636 351.455 331.233 342.18 337.211 334.966 343.189 327.751 350.241 324.144 358.366 324.144 363.222 324.144 367.828 325.513 372.183 328.253 376.538 330.993 380.104 334.828 382.881 339.758 385.658 344.688 387.047 350.285 387.047 356.55 387.047 366.473 384.366 375.094 379.003 382.412 393.007 381.337 401.576 372.65 404.709 356.35 405.586 354.892 406.75 354.162 408.2 354.162 409.835 354.162 411.33 354.884 412.683 356.328 414.036 357.772 414.712 359.461 414.712 361.397 412.2 373.405 407.188 381.786 399.677 386.541 392.165 391.295 383.561 393.672 373.866 393.672L372.856 393.672C368.765 398.753 363.886 402.966 358.22 406.311 352.555 409.656 347.109 411.328 341.884 411.328 338.449 411.328 335.073 410.623 331.758 409.214 328.442 407.805 326.795 406.09 326.816 404.069 327.703 419.298 329.272 432.013 331.522 442.216 331.282 444.399 329.557 446.141 326.345 447.441 323.134 448.741 319.942 449.391 316.769 449.391 311.017 449.391 307.421 447.66 305.981 444.2 303.621 438.298 301.88 429.934 300.758 419.109 299.636 408.284 299.075 396.653 299.075 384.216 299.075 373.134 299.503 362.791 300.358 353.184 301.213 343.578 302.517 335.675 304.269 329.475 305.198 326.84 307.01 324.867 309.706 323.558 312.402 322.248 315.28 321.594 318.341 321.594Z" stroke="#FFFFFF" stroke-linejoin="round" stroke-miterlimit="10" fill="#452F07" fill-rule="evenodd"/><text fill="#000000" fill-opacity="0" font-family="Arial,Arial_MSFontService,sans-serif" font-size="127.797" x="299.075" y="433.416">p</text><path d="M783.875 429.556C777.871 432.412 773.309 434.93 770.189 437.108 767.069 439.286 765.509 442.184 765.509 445.803 765.509 447.986 766.078 449.671 767.214 450.856 768.35 452.042 769.862 452.634 771.75 452.634 774.933 452.634 777.526 450.574 779.528 446.453 781.53 442.332 782.979 436.7 783.875 429.556ZM658.706 393.847C654.808 393.847 652.859 394.815 652.859 396.753 652.859 398.728 653.89 400.557 655.951 402.239 658.013 403.921 659.977 404.762 661.844 404.762 665.689 404.762 669.536 401.642 673.384 395.4 665.878 394.364 660.985 393.847 658.706 393.847ZM553.706 393.847C549.808 393.847 547.859 394.815 547.859 396.753 547.859 398.728 548.89 400.557 550.951 402.239 553.013 403.921 554.977 404.762 556.844 404.762 560.689 404.762 564.536 401.642 568.384 395.4 560.878 394.364 555.985 393.847 553.706 393.847ZM677.541 340.481C673.605 340.481 669.097 344.871 664.017 353.651 658.937 362.432 654.694 372.274 651.287 383.178 651.342 382.918 652.572 382.787 654.978 382.787 658.601 382.787 664.256 383.405 671.944 384.64L676.987 385.334C678.679 381.111 680.104 376.01 681.261 370.031 682.418 364.052 682.997 358.636 682.997 353.784 682.997 349.407 682.488 346.096 681.472 343.85 680.455 341.604 679.145 340.481 677.541 340.481ZM572.541 340.481C568.605 340.481 564.097 344.871 559.017 353.651 553.937 362.432 549.694 372.274 546.287 383.178 546.342 382.918 547.572 382.787 549.978 382.787 553.601 382.787 559.256 383.405 566.944 384.64L571.987 385.334C573.679 381.111 575.104 376.01 576.261 370.031 577.418 364.052 577.997 358.636 577.997 353.784 577.997 349.407 577.488 346.096 576.472 343.85 575.455 341.604 574.145 340.481 572.541 340.481ZM536.637 325.89C539.323 325.89 541.897 326.315 544.359 327.165 546.822 328.015 548.053 329.348 548.053 331.162 546.197 340.046 545.085 352.021 544.719 367.087 545.933 355.752 549.53 346.477 555.508 339.262 561.486 332.048 568.537 328.44 576.662 328.44 581.519 328.44 586.124 329.81 590.48 332.55 594.835 335.289 598.401 339.124 601.178 344.055 603.955 348.985 605.344 354.582 605.344 360.847 605.344 370.77 602.662 379.39 597.3 386.709 611.304 385.634 619.873 376.947 623.006 360.647L623.459 360.037 623.655 357.481C624.51 347.875 625.813 339.972 627.565 333.772 628.495 331.136 630.307 329.164 633.003 327.855 635.699 326.545 638.577 325.89 641.637 325.89 644.323 325.89 646.897 326.315 649.359 327.165 651.822 328.015 653.053 329.348 653.053 331.162 651.197 340.046 650.085 352.021 649.719 367.087 650.933 355.752 654.53 346.477 660.508 339.262 666.486 332.048 673.537 328.44 681.662 328.44 686.519 328.44 691.124 329.81 695.48 332.55 699.835 335.289 703.401 339.124 706.178 344.055 708.955 348.985 710.344 354.582 710.344 360.847 710.344 370.77 707.662 379.39 702.3 386.709 716.304 385.634 724.873 376.947 728.006 360.647 728.225 360.282 728.463 359.963 728.718 359.69L728.972 359.478 729.444 350.655C730.171 343.972 730.932 339.506 731.728 337.256 732.88 334.619 734.816 332.621 737.534 331.262 740.253 329.904 743.156 329.225 746.244 329.225 749.05 329.225 751.667 329.791 754.095 330.923 756.523 332.056 757.839 333.761 758.044 336.04 756.219 350.372 755.306 362.957 755.306 373.797 755.306 391.172 757.845 399.859 762.922 399.859 765.532 399.859 768.293 397.554 771.205 392.944 774.116 388.333 776.728 381.565 779.041 372.639 781.353 363.713 783.096 353.182 784.269 341.047 784.479 339.153 785.712 337.788 787.967 336.953 790.222 336.118 792.599 335.7 795.097 335.7 798.668 335.7 802.103 336.467 805.401 338.001 808.7 339.536 810.429 341.68 810.587 344.434 811.404 352.736 811.812 363.309 811.812 376.153L811.812 394.79C811.812 397.532 811.682 401.312 811.422 406.131 816.384 401.708 821.249 395.842 826.016 388.531 830.782 381.221 834.013 371.956 835.709 360.737 836.73 358.958 838.038 358.069 839.634 358.069 841.201 358.069 842.613 358.831 843.87 360.356 845.128 361.881 845.756 363.628 845.756 365.597 843.167 379.503 838.714 390.654 832.4 399.05 826.085 407.446 818.709 414.1 810.272 419.012 808.22 433.11 804.028 444.082 797.697 451.926 791.366 459.771 782.978 463.694 772.534 463.694 766.122 463.694 760.916 462.021 756.916 458.675 752.916 455.329 750.916 450.843 750.916 445.215 750.916 440.759 752.167 437.03 754.669 434.026 757.171 431.023 760.284 428.625 764.008 426.833 767.732 425.04 772.941 422.831 779.634 420.206L784.531 418.312C784.879 412.371 785.053 405.446 785.053 397.537 785.053 388.685 785.123 382.42 785.262 378.74 784.523 390.905 781.675 399.571 776.719 404.737 771.762 409.904 765.986 412.487 759.391 412.487 752.968 412.487 747.263 410.942 742.278 407.851 737.293 404.761 733.679 400.486 731.437 395.028 730.666 392.918 730.04 390.475 729.558 387.699L729.203 385.336 728.138 386.592C726.573 388.234 724.851 389.649 722.973 390.837 715.462 395.592 706.858 397.969 697.162 397.969L696.153 397.969C692.061 403.05 687.183 407.263 681.517 410.608 675.851 413.952 670.406 415.625 665.181 415.625 661.746 415.625 658.37 414.92 655.055 413.511 651.739 412.101 650.092 410.386 650.112 408.365 651 423.595 652.569 436.31 654.819 446.512 654.579 448.696 652.854 450.437 649.642 451.737 646.431 453.037 643.238 453.687 640.065 453.687 634.313 453.687 630.718 451.957 629.278 448.497 626.918 442.595 625.176 434.231 624.055 423.406 622.933 412.581 622.372 400.95 622.372 388.512L622.384 387.293 620.673 388.885C619.812 389.592 618.912 390.243 617.973 390.837 610.462 395.592 601.858 397.969 592.162 397.969L591.153 397.969C587.061 403.05 582.183 407.263 576.517 410.608 570.851 413.952 565.406 415.625 560.181 415.625 556.746 415.625 553.37 414.92 550.055 413.511 546.739 412.101 545.092 410.386 545.112 408.365 546 423.595 547.569 436.31 549.819 446.512 549.579 448.696 547.854 450.437 544.642 451.737 541.431 453.037 538.238 453.687 535.065 453.687 529.313 453.687 525.718 451.957 524.278 448.497 521.918 442.595 520.176 434.231 519.055 423.406 518.494 417.994 518.073 412.38 517.792 406.564L517.503 398.42 516.069 401.096C515.377 402.283 514.666 403.399 513.937 404.445 508.106 412.815 501.445 417 493.953 417 485.126 417 478.345 413.693 473.611 407.078 468.876 400.463 466.251 392.195 465.734 382.272 464.28 392.207 461.045 399.858 456.028 405.223 451.011 410.589 445.145 413.272 438.428 413.272 432.399 413.272 427.021 411.755 422.294 408.722 417.567 405.688 414.103 400.669 411.903 393.662 409.941 389.473 408.959 382.262 408.959 372.031 408.959 364.969 409.321 358.245 410.045 351.861 410.769 345.476 411.56 341.137 412.419 338.844 413.36 336.333 415.075 334.495 417.564 333.33 420.053 332.164 422.756 331.581 425.675 331.581 428.396 331.581 431.058 332.133 433.661 333.237 436.264 334.342 437.866 335.927 438.466 337.994 437.905 342.046 437.373 347.318 436.869 353.811 436.364 360.303 436.112 366.573 436.112 372.619 436.112 391.171 438.454 400.447 443.137 400.447 446.581 400.447 450.389 396.15 454.561 387.556 458.733 378.962 461.977 368.62 464.294 356.528 464.427 351.776 464.723 347.46 465.183 343.58 465.642 339.699 466.095 337.093 466.541 335.759 467.47 332.968 469.317 330.919 472.083 329.614 474.848 328.309 477.887 327.656 481.2 327.656 484.267 327.656 487.034 328.232 489.503 329.384 491.972 330.536 493.206 332.189 493.206 334.344 491.767 346.762 491.047 359.652 491.047 373.012 491.047 382.648 491.641 390.315 492.828 396.015 494.016 401.715 495.568 404.565 497.484 404.565 500.278 404.565 503.696 400.555 507.739 392.533 511.782 384.511 515.164 373.95 517.887 360.85L518.494 359.588 518.655 357.481C519.51 347.875 520.813 339.972 522.566 333.772 523.495 331.136 525.307 329.164 528.003 327.855 530.699 326.545 533.577 325.89 536.637 325.89Z" fill="#5B9BD5" fill-rule="evenodd"/><path d="M783.243 430.428 779.857 432.11 776.179 434.042 773.079 435.904 770.467 437.583 768.508 439.251 767.142 441.21 766.311 443.408 766.014 445.843 766.426 448.612 767.626 450.555 769.447 451.75 771.762 452.155 773.901 451.808 775.82 450.704 777.546 448.859 779.124 446.25 780.484 442.911 781.656 439.018 782.646 434.554ZM783.652 429.108C783.819 429.026 784.018 429.042 784.168 429.151 784.319 429.26 784.396 429.444 784.37 429.628L783.622 434.771 782.613 439.307 781.41 443.288 780.035 446.663C780.025 446.688 780.013 446.711 780 446.734L778.375 449.421C778.357 449.451 778.336 449.479 778.312 449.504L776.499 451.441C776.466 451.478 776.427 451.508 776.384 451.533L774.321 452.721C774.269 452.751 774.211 452.771 774.152 452.781L771.839 453.156C771.784 453.165 771.728 453.164 771.673 453.155L769.173 452.717C769.106 452.706 769.042 452.68 768.985 452.643L766.985 451.33C766.924 451.29 766.872 451.237 766.834 451.175L765.521 449.05C765.486 448.992 765.462 448.928 765.452 448.861L765.015 445.923C765.008 445.879 765.008 445.834 765.013 445.789L765.325 443.227C765.33 443.187 765.34 443.148 765.354 443.11L766.229 440.798C766.244 440.759 766.263 440.723 766.287 440.689L767.724 438.626C767.749 438.591 767.778 438.559 767.811 438.531L769.926 436.742 772.565 435.046 775.714 433.157 779.412 431.215ZM658.678 394.346 656.289 394.532 654.57 395.047 653.697 395.818 653.394 396.829 653.558 398.09 654.134 399.415 655.014 400.646 656.318 401.89 659.201 403.692 661.89 404.277 664.576 403.751 667.321 402.08 670.123 399.217 672.505 395.799 668.193 395.22 664.082 394.785 660.898 394.472ZM553.678 394.346 551.289 394.532 549.57 395.047 548.697 395.818 548.394 396.829 548.558 398.09 549.134 399.415 550.014 400.646 551.318 401.89 554.201 403.692 556.89 404.277 559.576 403.751 562.321 402.08 565.123 399.217 567.505 395.799 563.193 395.22 559.082 394.785 555.898 394.472ZM658.735 393.348 660.996 393.477 664.187 393.79 668.326 394.229 673.451 394.917C673.624 394.94 673.772 395.051 673.842 395.211 673.912 395.371 673.894 395.555 673.794 395.698L670.919 399.823C670.904 399.846 670.886 399.867 670.867 399.887L667.992 402.825C667.963 402.854 667.93 402.88 667.894 402.902L665.019 404.652C664.969 404.683 664.913 404.704 664.855 404.716L661.98 405.278C661.913 405.291 661.845 405.29 661.778 405.276L658.903 404.651C658.847 404.639 658.793 404.617 658.744 404.586L655.744 402.711C655.715 402.693 655.689 402.672 655.664 402.649L654.289 401.337C654.266 401.315 654.246 401.291 654.227 401.265L653.29 399.953C653.27 399.924 653.252 399.894 653.238 399.862L652.613 398.424C652.595 398.381 652.582 398.336 652.576 398.29L652.388 396.852C652.379 396.782 652.385 396.711 652.405 396.644L652.78 395.394C652.807 395.304 652.858 395.224 652.928 395.162L653.991 394.225C654.045 394.177 654.109 394.142 654.178 394.121L656.053 393.558C656.088 393.548 656.123 393.542 656.159 393.539ZM553.735 393.348 555.996 393.477 559.187 393.79 563.326 394.229 568.451 394.917C568.624 394.94 568.772 395.051 568.842 395.211 568.912 395.371 568.894 395.555 568.794 395.698L565.919 399.823C565.904 399.846 565.886 399.867 565.867 399.887L562.992 402.825C562.962 402.854 562.93 402.88 562.894 402.902L560.019 404.652C559.969 404.683 559.913 404.704 559.855 404.716L556.98 405.278C556.913 405.291 556.845 405.29 556.778 405.276L553.903 404.651C553.847 404.639 553.793 404.617 553.744 404.586L550.744 402.711C550.715 402.693 550.689 402.672 550.664 402.649L549.289 401.337C549.266 401.315 549.246 401.291 549.227 401.265L548.29 399.953C548.27 399.924 548.252 399.894 548.238 399.862L547.613 398.424C547.595 398.381 547.582 398.336 547.576 398.29L547.388 396.852C547.379 396.782 547.385 396.711 547.405 396.644L547.78 395.394C547.807 395.304 547.858 395.224 547.928 395.162L548.991 394.225C549.045 394.177 549.109 394.142 549.178 394.121L551.053 393.558C551.088 393.548 551.123 393.542 551.159 393.539ZM572.532 340.989 571.207 341.209 569.741 341.796 568.188 342.811 566.591 344.224 564.869 346.01 563.154 348.219 561.361 350.879 559.498 353.923 555.824 360.713 552.526 367.872 549.473 375.413 547.116 382.43 547.17 382.42 548.357 382.351 549.99 382.288 553.154 382.413 556.996 382.79 561.632 383.354 567.021 384.168 571.665 384.798 573.847 378.193 575.772 369.924 577.078 361.461 577.51 353.759 577.447 350.735 577.138 348.095 576.713 345.858 576.054 344.06 575.287 342.704 574.432 341.735 573.572 341.197ZM677.532 340.989 676.207 341.209 674.741 341.796 673.188 342.811 671.591 344.224 669.869 346.01 668.154 348.219 666.361 350.879 664.498 353.923 660.824 360.713 657.526 367.872 654.473 375.413 652.116 382.43 652.17 382.42 653.357 382.351 654.99 382.288 658.154 382.413 661.996 382.79 666.632 383.354 672.021 384.168 676.665 384.798 678.847 378.193 680.772 369.924 682.078 361.461 682.51 353.759 682.447 350.735 682.138 348.095 681.713 345.859 681.054 344.06 680.287 342.704 679.433 341.735 678.572 341.197ZM677.459 339.988C677.518 339.978 677.579 339.979 677.639 339.991L678.857 340.235C678.917 340.246 678.973 340.269 679.024 340.301L680.024 340.926C680.065 340.951 680.102 340.983 680.134 341.019L681.072 342.082C681.095 342.108 681.115 342.136 681.132 342.166L681.945 343.604C681.958 343.627 681.969 343.652 681.979 343.678L682.666 345.553C682.676 345.578 682.683 345.605 682.688 345.632L683.131 347.98 683.447 350.715 683.508 353.816 683.066 361.614 681.746 370.151 679.797 378.507 677.484 385.507C677.408 385.735 677.181 385.878 676.942 385.845L671.872 385.157 666.511 384.346 661.898 383.785 658.114 383.412 655.028 383.287 653.412 383.349 652.349 383.404 651.777 383.508 651.622 383.625C651.447 383.756 651.206 383.758 651.029 383.63 650.851 383.502 650.778 383.273 650.848 383.066L653.546 375.037 656.618 367.453 659.945 360.237 663.645 353.401 665.532 350.32 667.365 347.605 669.15 345.315 670.928 343.475 672.553 342.038C672.571 342.022 672.59 342.007 672.611 341.994L674.236 340.931C674.263 340.913 674.293 340.898 674.324 340.886L675.886 340.261C675.92 340.247 675.954 340.237 675.99 340.232ZM572.459 339.988C572.518 339.978 572.579 339.979 572.639 339.991L573.857 340.235C573.917 340.246 573.973 340.269 574.024 340.301L575.024 340.926C575.065 340.951 575.102 340.983 575.134 341.019L576.072 342.082C576.095 342.108 576.115 342.136 576.132 342.166L576.945 343.604C576.958 343.627 576.969 343.652 576.979 343.678L577.666 345.553C577.676 345.578 577.683 345.605 577.688 345.632L578.131 347.98 578.447 350.715 578.508 353.816 578.066 361.614 576.746 370.151 574.797 378.507 572.484 385.507C572.408 385.735 572.181 385.878 571.942 385.845L566.872 385.157 561.511 384.346 556.898 383.785 553.114 383.412 550.029 383.287 548.412 383.349 547.349 383.404 546.777 383.508 546.622 383.625C546.447 383.756 546.206 383.758 546.029 383.63 545.851 383.502 545.778 383.273 545.848 383.066L548.546 375.037 551.618 367.453 554.945 360.237 558.645 353.401 560.532 350.32 562.365 347.605 564.15 345.315 565.928 343.475 567.553 342.038C567.571 342.022 567.59 342.007 567.611 341.994L569.236 340.931C569.263 340.913 569.293 340.898 569.324 340.886L570.886 340.261C570.92 340.247 570.954 340.237 570.99 340.232ZM536.646 326.393 532.373 326.902 528.244 328.36 525.01 330.695 523.038 333.982 521.813 338.818 520.755 344.418 519.882 350.712 519.195 357.583 519.007 359.645C519.002 359.7 518.988 359.754 518.965 359.805L518.423 361.011 516.239 370.365 513.793 378.766 511.152 386.243 508.2 392.773 506.693 395.599 505.238 398.127 503.849 400.21 502.559 401.945 501.309 403.257C501.29 403.277 501.269 403.296 501.247 403.312L499.997 404.25C499.973 404.268 499.947 404.284 499.92 404.297L498.795 404.86C498.752 404.881 498.706 404.896 498.659 404.905L497.596 405.092C497.503 405.109 497.407 405.098 497.32 405.063L495.945 404.5C495.862 404.466 495.79 404.411 495.736 404.34L494.549 402.777C494.523 402.744 494.502 402.707 494.486 402.668L493.361 399.98C493.351 399.957 493.343 399.933 493.337 399.909L492.392 396.124 491.574 391.464 491.01 386.063 490.697 379.921 490.572 373.023 491.136 353.307 492.756 334.37 492.529 333.011 491.914 331.837 490.827 330.75 489.302 329.87 485.528 328.592 481.261 328.165 476.618 328.654 472.366 330.112 469.014 332.505 467.04 335.975 466.747 337.146 466.379 338.796 466.067 340.981 465.695 343.646 465.134 349.748 464.821 356.56C464.82 356.589 464.816 356.617 464.81 356.645L462.866 365.421 460.605 373.58 457.968 380.985 455.015 387.831 453.443 390.848 451.927 393.499 450.464 395.723 448.988 397.578 447.55 399.016C447.532 399.034 447.512 399.051 447.491 399.067L446.116 400.067C446.091 400.085 446.065 400.101 446.037 400.114L444.724 400.739C444.679 400.76 444.63 400.775 444.58 400.782L443.267 400.97C443.2 400.979 443.132 400.975 443.067 400.958L441.442 400.52C441.365 400.499 441.294 400.46 441.235 400.407L439.797 399.094C439.76 399.06 439.729 399.021 439.703 398.978L438.453 396.853C438.435 396.822 438.42 396.789 438.409 396.755L437.393 393.631 436.638 389.659 436.073 384.877 435.759 379.172 435.635 372.642 436.386 353.809 436.762 349.173 437.199 344.988 437.576 341.221 437.991 338.142 436.502 335.623 435.178 334.587 433.508 333.752 429.656 332.529 425.696 332.103 421.554 332.529 417.803 333.799 414.82 335.947 412.908 339.055 412.31 341.081 411.691 343.927 411.13 347.538 410.57 351.954 409.759 361.737 409.509 372.024 409.695 379.115 410.251 385.012 411.119 389.846 412.414 393.485 414.275 398.385 416.609 402.438 419.36 405.74 422.598 408.306 426.215 410.268 430.082 411.679 434.107 412.476 438.439 412.786 443.218 412.295 447.736 410.83 451.835 408.322 455.705 404.882 459.086 400.517 461.797 395.28 463.832 389.187 465.27 382.187C465.319 381.945 465.537 381.776 465.784 381.788 466.03 381.8 466.231 381.99 466.257 382.235L466.994 389.291 468.6 395.731 470.897 401.628 474.037 406.8 477.9 411.092 482.48 414.084 487.866 415.921 494.017 416.536 496.685 416.354 499.279 415.754 501.866 414.83 504.278 413.508 506.738 411.727 509.071 409.645 511.3 407.108 513.524 404.208 515.633 400.86 517.071 398.235C517.179 398.038 517.405 397.937 517.624 397.988 517.843 398.04 518 398.231 518.009 398.456L518.32 406.563 519.568 423.352 520.501 431.009 521.746 437.735 523.107 443.499 524.773 448.313 526.188 450.435 528.3 451.96 531.294 452.919 535.066 453.223 539.786 452.732 544.512 451.321 546.551 450.301 548.019 449.126 548.927 447.878 549.309 446.516 547.764 438.484 546.449 429.4 545.448 419.387 544.636 408.449C544.616 408.188 544.803 407.955 545.062 407.918 545.322 407.88 545.567 408.05 545.623 408.306L545.913 409.643 546.754 410.819 548.162 411.993 550.265 413.074 555.174 414.67 560.202 415.16 564.12 414.854 568.02 413.945 572.093 412.405 576.31 410.235 584.118 404.596 590.837 397.628C590.931 397.53 591.061 397.475 591.197 397.475L592.166 397.476 599.163 397.047 605.813 395.742 611.993 393.517 617.717 390.444 620.357 388.545 622.045 386.983C622.19 386.848 622.402 386.812 622.584 386.892 622.767 386.971 622.884 387.151 622.884 387.35L622.884 388.525 623.32 406.563 624.568 423.352 625.501 431.009 626.746 437.735 628.107 443.499 629.773 448.313 631.188 450.435 633.3 451.96 636.294 452.919 640.066 453.223 644.786 452.732 649.512 451.321 651.551 450.301 653.019 449.126 653.927 447.878 654.309 446.516 652.764 438.484 651.449 429.4 650.448 419.387 649.636 408.449C649.616 408.188 649.803 407.955 650.062 407.918 650.322 407.88 650.567 408.05 650.623 408.306L650.913 409.643 651.754 410.819 653.162 411.993 655.265 413.074 660.174 414.67 665.202 415.16 669.12 414.854 673.02 413.945 677.093 412.405 681.309 410.235 689.118 404.596 695.837 397.628C695.931 397.53 696.061 397.475 696.197 397.475L697.166 397.476 704.163 397.047 710.813 395.742 716.993 393.517 722.717 390.444 725.357 388.545 727.816 386.276 728.878 385.026C729.006 384.875 729.211 384.814 729.401 384.87 729.59 384.926 729.729 385.089 729.755 385.285L730.06 387.616 730.926 391.52 731.914 394.853 733.813 398.652 736.267 402.026 739.148 404.969 742.557 407.408 746.398 409.453 750.419 410.859 754.793 411.726 759.437 412.036 764.093 411.545 768.493 410.14 772.592 407.754 776.388 404.448 779.636 399.974 782.159 394.251 783.887 387.17 784.825 378.732C784.855 378.465 785.091 378.269 785.359 378.289 785.627 378.309 785.832 378.538 785.821 378.807L785.697 382.045 785.634 386.231 785.572 391.412 785.572 397.543 785.446 408.744 785.071 418.369C785.064 418.57 784.937 418.746 784.749 418.817L779.818 420.69 775.077 422.561 770.901 424.306 767.277 425.931 764.27 427.277 759.192 430.373 755.081 434.361 753.51 436.657 752.36 439.259 751.692 442.114 751.449 445.221 751.815 449.126 752.906 452.644 754.722 455.67 757.271 458.34 760.437 460.472 763.977 461.997 768.019 462.916 772.563 463.223 779.905 462.483 786.483 460.331 792.258 456.706 797.309 451.656 801.635 445.228 805.157 437.701 807.893 428.942 809.831 418.942C809.857 418.809 809.935 418.693 810.048 418.619L816.131 414.65 821.843 409.996 827.125 404.718 832.026 398.83 836.369 392.075 840.036 384.252 843.022 375.427 845.25 365.583 844.843 363.022 843.494 360.736 841.646 359.118 839.652 358.62 837.795 359.221 836.224 361.015 834.677 368.927 832.533 376.293 829.759 382.904 826.482 388.824 822.842 394.031 819.195 398.746 815.485 402.894 811.797 406.519C811.65 406.664 811.429 406.703 811.241 406.618 811.053 406.533 810.936 406.341 810.948 406.135L811.135 402.704 811.259 399.713 811.322 397.1 811.322 394.85 811.322 376.166 811.26 366.99 811.01 358.687 810.636 351.2 810.138 344.549 809.726 342.72 808.798 341.098 807.333 339.691 805.239 338.495 800.275 336.778 795.129 336.227 791.596 336.532 788.179 337.447 786.778 338.089 785.76 338.938 785.101 339.926 784.819 341.156 783.817 349.984 782.625 358.193 781.184 365.775 779.552 372.8 777.732 379.138 775.844 384.609 773.823 389.34 771.666 393.265 769.479 396.328C769.464 396.348 769.448 396.368 769.431 396.386L767.368 398.511C767.341 398.539 767.311 398.563 767.278 398.584L765.215 399.897C765.166 399.928 765.111 399.951 765.054 399.963L763.054 400.401C762.978 400.417 762.9 400.416 762.826 400.397L761.076 399.96C761.01 399.943 760.948 399.914 760.894 399.873L759.332 398.685C759.285 398.65 759.244 398.606 759.212 398.556L757.9 396.493C757.882 396.464 757.866 396.434 757.854 396.402L756.773 393.528 755.888 389.787 755.323 385.26 754.947 379.985 754.822 373.839 755.01 365.322 755.511 356.243 756.387 346.481 757.565 336.129 757.225 334.654 756.542 333.403 755.452 332.312 753.926 331.432 750.212 330.153 746.26 329.728 741.876 330.215 737.811 331.732 734.438 334.202 732.217 337.503 731.625 339.508 731.066 342.362 730.506 346.098 729.946 350.687 729.509 359.562C729.501 359.711 729.428 359.848 729.309 359.937L729.11 360.087 728.468 360.89 727.039 366.591 725.101 371.654C725.092 371.677 725.082 371.699 725.07 371.721L722.632 376.033C722.618 376.058 722.603 376.081 722.585 376.102L719.648 379.727C719.627 379.753 719.603 379.777 719.577 379.799L716.077 382.674C716.053 382.693 716.028 382.71 716.002 382.724L712.065 384.912C712.038 384.927 712.009 384.939 711.98 384.949L707.48 386.449C707.453 386.458 707.424 386.465 707.396 386.469L702.396 387.219C702.204 387.248 702.013 387.163 701.905 387.002 701.798 386.84 701.794 386.631 701.895 386.465L705.375 380.748 707.906 374.636 709.388 367.965 709.885 360.877 709.643 356.38 708.846 352.129 707.558 348.127 705.773 344.365 703.626 340.921 701.101 337.899 698.342 335.256 695.269 333.038 691.989 331.243 688.709 330.024 685.248 329.221 681.709 328.977 675.938 329.652 670.548 331.612 665.516 334.926 660.896 339.607 656.944 345.351 653.851 351.844 651.627 359.058 650.252 367.183C650.208 367.443 649.97 367.625 649.707 367.597 649.445 367.57 649.249 367.343 649.26 367.079L649.698 356.376 650.387 346.795 651.329 338.327 652.563 331.169 652.35 330.104 651.756 329.185 650.746 328.343 649.255 327.708 645.549 326.72 641.705 326.415 637.372 326.903 633.244 328.36 630.01 330.695 628.038 333.981 626.813 338.818 625.755 344.418 624.882 350.712 624.195 357.575 624.008 360.075C624 360.175 623.963 360.271 623.9 360.35L623.468 360.89 622.039 366.591 620.101 371.654C620.092 371.677 620.082 371.699 620.07 371.721L617.632 376.033C617.618 376.058 617.603 376.081 617.585 376.102L614.648 379.727C614.627 379.753 614.603 379.777 614.577 379.799L611.077 382.674C611.053 382.693 611.028 382.71 611.002 382.724L607.065 384.912C607.038 384.927 607.009 384.939 606.98 384.949L602.48 386.449C602.453 386.458 602.424 386.465 602.396 386.469L597.396 387.219C597.204 387.248 597.013 387.163 596.905 387.002 596.798 386.84 596.794 386.631 596.895 386.465L600.375 380.748 602.906 374.636 604.388 367.965 604.885 360.877 604.643 356.38 603.846 352.129 602.558 348.127 600.773 344.365 598.626 340.921 596.101 337.899 593.342 335.256 590.269 333.038 586.989 331.243 583.709 330.024 580.248 329.221 576.709 328.977 570.938 329.652 565.548 331.612 560.516 334.926 555.896 339.607 551.944 345.351 548.851 351.844 546.627 359.058 545.252 367.183C545.208 367.443 544.97 367.625 544.707 367.597 544.445 367.57 544.249 367.343 544.26 367.079L544.698 356.376 545.387 346.795 546.329 338.327 547.563 331.169 547.35 330.104 546.756 329.185 545.746 328.343 544.255 327.708 540.548 326.719ZM536.679 325.392 540.676 325.727C540.705 325.729 540.735 325.734 540.763 325.742L544.513 326.742 546.204 327.452C546.249 327.471 546.292 327.497 546.329 327.528L547.454 328.466C547.493 328.498 547.527 328.536 547.554 328.578L548.242 329.641C548.276 329.694 548.3 329.753 548.312 329.814L548.562 331.064C548.574 331.125 548.575 331.187 548.565 331.247L547.315 338.497 546.381 346.905 545.695 356.448 545.581 359.248 545.641 358.891 547.906 351.515C547.914 351.492 547.922 351.469 547.933 351.447L551.058 344.885C551.069 344.861 551.082 344.838 551.097 344.816L555.097 339.004C555.114 338.98 555.133 338.957 555.153 338.936L559.841 334.186C559.865 334.161 559.893 334.139 559.922 334.12L565.047 330.745C565.079 330.723 565.114 330.706 565.151 330.692L570.651 328.692C570.687 328.679 570.725 328.67 570.764 328.666L576.639 327.978C576.669 327.975 576.7 327.974 576.731 327.976L580.356 328.226C580.383 328.228 580.409 328.232 580.435 328.238L583.935 329.05 587.37 330.318C587.393 330.327 587.415 330.337 587.437 330.349L590.749 332.161 593.926 334.444 596.792 337.176 599.393 340.279 601.621 343.835 603.461 347.698 604.798 351.821 605.626 356.195 605.884 360.823 605.383 368.072C605.381 368.097 605.378 368.122 605.372 368.146L603.872 374.896C603.866 374.924 603.857 374.952 603.846 374.979L601.284 381.166C601.274 381.19 601.262 381.213 601.249 381.235L598.305 386.072 602.205 385.487 606.62 384.015 610.477 381.872 613.903 379.058 616.782 375.505 619.181 371.261 621.105 366.234 622.524 360.541C622.542 360.471 622.574 360.406 622.619 360.35L623.022 359.846 623.198 357.5 623.887 350.613 624.764 344.281 625.83 338.632 627.087 333.665C627.099 333.617 627.118 333.572 627.143 333.53L629.206 330.093C629.24 330.035 629.287 329.984 629.342 329.945L632.717 327.507C632.755 327.479 632.798 327.457 632.843 327.441L637.093 325.941C637.129 325.928 637.166 325.92 637.203 325.915L641.641 325.415C641.672 325.412 641.704 325.411 641.736 325.414L645.674 325.726C645.704 325.729 645.734 325.734 645.763 325.742L649.513 326.742 651.204 327.452C651.249 327.471 651.292 327.497 651.329 327.528L652.454 328.466C652.493 328.498 652.527 328.536 652.554 328.578L653.242 329.641C653.276 329.694 653.3 329.753 653.312 329.814L653.562 331.064C653.574 331.125 653.575 331.187 653.565 331.247L652.315 338.497 651.381 346.905 650.695 356.448 650.581 359.248 650.641 358.891 652.906 351.515C652.914 351.492 652.922 351.469 652.933 351.447L656.058 344.885C656.069 344.861 656.082 344.838 656.097 344.816L660.097 339.004C660.114 338.98 660.133 338.957 660.153 338.936L664.841 334.186C664.865 334.161 664.893 334.139 664.922 334.12L670.047 330.745C670.079 330.723 670.114 330.706 670.151 330.692L675.651 328.692C675.687 328.679 675.725 328.67 675.764 328.666L681.639 327.978C681.669 327.975 681.7 327.974 681.731 327.976L685.356 328.226C685.383 328.228 685.409 328.232 685.435 328.238L688.935 329.05 692.37 330.318C692.393 330.327 692.415 330.337 692.437 330.349L695.749 332.161 698.926 334.444 701.792 337.176 704.393 340.279 706.621 343.835 708.461 347.698 709.798 351.821 710.626 356.195 710.884 360.823 710.383 368.072C710.381 368.097 710.378 368.122 710.372 368.146L708.872 374.896C708.866 374.924 708.857 374.952 708.846 374.979L706.284 381.166C706.274 381.19 706.262 381.213 706.249 381.235L703.305 386.072 707.205 385.487 711.62 384.015 715.477 381.872 718.903 379.058 721.782 375.505 724.181 371.261 726.105 366.234 727.524 360.541C727.542 360.471 727.574 360.406 727.619 360.35L728.369 359.413C728.395 359.38 728.426 359.35 728.459 359.325L728.521 359.278 728.947 350.638 729.513 345.977 730.077 342.213 730.644 339.316 731.28 337.146C731.294 337.097 731.316 337.051 731.344 337.008L733.657 333.571C733.689 333.523 733.73 333.481 733.776 333.446L737.276 330.884C737.313 330.857 737.354 330.835 737.397 330.819L741.584 329.256C741.623 329.242 741.663 329.232 741.704 329.228L746.204 328.728C746.24 328.724 746.277 328.724 746.313 328.728L750.375 329.165C750.412 329.169 750.449 329.177 750.484 329.19L754.297 330.502C754.327 330.512 754.356 330.526 754.384 330.542L756.009 331.479C756.047 331.501 756.082 331.528 756.113 331.559L757.3 332.746C757.334 332.78 757.363 332.818 757.386 332.86L758.136 334.235C758.157 334.275 758.174 334.318 758.184 334.362L758.559 335.987C758.572 336.043 758.575 336.1 758.569 336.156L757.381 346.594 756.507 356.332 756.009 365.377 755.822 373.861 755.947 379.965 756.32 385.189 756.88 389.663 757.746 393.297 758.771 396 760.008 397.943 761.418 399.015 762.954 399.399 764.753 399.005 766.691 397.772 768.687 395.716 770.852 392.684 772.946 388.859 774.924 384.216 776.787 378.812 778.591 372.524 780.21 365.549 781.643 358.006 782.827 349.841 783.825 341.043 784.147 339.614C784.16 339.555 784.184 339.498 784.218 339.448L784.968 338.323C784.995 338.282 785.027 338.247 785.064 338.216L786.189 337.278C786.223 337.25 786.261 337.226 786.301 337.208L787.801 336.52C787.826 336.509 787.853 336.499 787.88 336.492L791.38 335.554C791.408 335.547 791.437 335.542 791.466 335.539L795.091 335.227C795.123 335.224 795.156 335.224 795.188 335.228L800.438 335.79C800.475 335.794 800.512 335.802 800.548 335.815L805.61 337.565C805.64 337.575 805.668 337.588 805.695 337.603L807.882 338.853C807.918 338.874 807.951 338.898 807.981 338.927L809.543 340.427C809.578 340.46 809.607 340.498 809.631 340.539L810.631 342.289C810.656 342.332 810.674 342.379 810.685 342.427L811.122 344.365C811.127 344.389 811.131 344.413 811.133 344.438L811.633 351.125 812.009 358.637 812.259 366.96 812.322 376.159 812.322 394.85 812.322 397.1 812.259 399.737 812.134 402.746 812.016 404.901 814.784 402.181 818.449 398.079 822.051 393.419 825.662 388.251 828.884 382.42 831.611 375.907 833.717 368.648 835.269 360.691C835.285 360.605 835.325 360.524 835.383 360.458L837.133 358.458C837.193 358.39 837.269 358.339 837.355 358.312L839.48 357.624C839.569 357.595 839.665 357.592 839.756 357.615L842.006 358.177C842.083 358.197 842.154 358.234 842.214 358.286L844.214 360.036C844.254 360.071 844.288 360.112 844.315 360.158L845.752 362.596C845.784 362.65 845.806 362.709 845.816 362.771L846.253 365.521C846.263 365.584 846.261 365.648 846.247 365.71L843.997 375.648 840.983 384.572 837.275 392.499 832.867 399.37 827.894 405.357 822.55 410.703 816.763 415.425 810.772 419.34 808.875 429.132 806.112 437.999 802.525 445.686C802.514 445.71 802.501 445.733 802.487 445.754L798.112 452.254C798.094 452.281 798.073 452.306 798.05 452.328L792.925 457.453C792.899 457.48 792.869 457.503 792.838 457.523L786.963 461.211C786.928 461.233 786.891 461.25 786.852 461.263L780.165 463.45C780.131 463.461 780.095 463.469 780.059 463.472L772.622 464.222C772.594 464.225 772.566 464.226 772.538 464.224L767.913 463.911C767.887 463.909 767.861 463.906 767.836 463.9L763.711 462.962C763.681 462.956 763.652 462.946 763.624 462.934L759.999 461.372C759.97 461.359 759.943 461.344 759.918 461.327L756.668 459.14C756.638 459.12 756.61 459.096 756.585 459.07L753.96 456.32C753.935 456.293 753.912 456.264 753.893 456.232L752.018 453.107C751.997 453.073 751.981 453.036 751.969 452.998L750.844 449.373C750.834 449.34 750.827 449.306 750.824 449.272L750.449 445.272C750.446 445.243 750.446 445.214 750.448 445.186L750.698 441.998C750.7 441.973 750.704 441.948 750.71 441.923L751.397 438.986C751.405 438.956 751.414 438.926 751.427 438.898L752.614 436.21C752.627 436.182 752.642 436.155 752.659 436.13L754.284 433.755C754.303 433.727 754.325 433.702 754.349 433.678L758.536 429.616C758.563 429.59 758.592 429.567 758.624 429.548L763.749 426.423 766.867 425.019 770.492 423.394 774.691 421.639 779.451 419.76 784.085 418 784.447 408.705 784.572 397.532 784.572 391.412 784.608 388.405 783.12 394.531C783.113 394.559 783.104 394.587 783.092 394.614L780.529 400.427C780.515 400.459 780.497 400.49 780.476 400.519L777.164 405.081C777.142 405.112 777.116 405.14 777.088 405.164L773.213 408.539C773.189 408.56 773.163 408.579 773.136 408.594L768.948 411.032C768.917 411.05 768.884 411.065 768.849 411.076L764.349 412.514C764.316 412.524 764.283 412.531 764.249 412.535L759.499 413.035C759.471 413.038 759.442 413.038 759.414 413.036L754.726 412.724 750.225 411.84 746.032 410.384C746.008 410.376 745.984 410.366 745.962 410.354L742.087 408.291 738.531 405.757C738.507 405.74 738.485 405.721 738.464 405.7L735.527 402.7C735.51 402.682 735.494 402.664 735.48 402.644L732.98 399.206C732.964 399.184 732.949 399.161 732.937 399.136L731 395.261C730.986 395.235 730.976 395.207 730.967 395.179L729.967 391.804 729.084 387.833 728.911 386.531 728.578 386.924 726.036 389.279 723.302 391.255 717.434 394.415C717.412 394.427 717.389 394.437 717.366 394.445L711.116 396.695C711.092 396.704 711.068 396.711 711.043 396.715L704.356 398.028 697.228 398.474 696.409 398.475 689.807 405.322C689.786 405.343 689.764 405.363 689.74 405.38L681.865 411.068C681.844 411.082 681.823 411.095 681.801 411.107L677.551 413.294 673.374 414.88 669.311 415.837C669.286 415.842 669.261 415.846 669.236 415.848L665.236 416.161C665.207 416.163 665.177 416.163 665.148 416.16L660.023 415.66C659.987 415.656 659.952 415.649 659.917 415.638L654.917 414.013C654.892 414.005 654.867 413.994 654.843 413.982L652.656 412.857C652.623 412.84 652.592 412.82 652.564 412.796L651.064 411.546C651.031 411.519 651.002 411.488 650.977 411.453L650.848 411.272 651.445 419.313 652.444 429.3 653.754 438.341 655.313 446.443C655.327 446.519 655.324 446.598 655.303 446.672L654.866 448.235C654.85 448.292 654.824 448.346 654.789 448.394L653.789 449.769C653.762 449.805 653.731 449.837 653.697 449.865L652.134 451.115C652.107 451.137 652.077 451.156 652.045 451.172L649.92 452.235C649.895 452.247 649.868 452.258 649.84 452.266L645.027 453.704C644.998 453.713 644.967 453.719 644.936 453.722L640.123 454.222C640.093 454.225 640.062 454.226 640.032 454.223L636.157 453.911C636.118 453.908 636.081 453.9 636.044 453.889L632.919 452.889C632.869 452.872 632.822 452.849 632.779 452.818L630.529 451.193C630.481 451.158 630.439 451.114 630.406 451.065L628.906 448.815C628.882 448.779 628.863 448.741 628.849 448.701L627.162 443.826 625.773 437.965 624.518 431.191 623.575 423.473 622.323 406.637 621.884 388.549 621.884 388.494 621.036 389.279 618.302 391.255 612.434 394.415C612.412 394.427 612.389 394.437 612.366 394.445L606.116 396.695C606.092 396.704 606.068 396.711 606.043 396.715L599.356 398.028 592.228 398.474 591.409 398.475 584.807 405.322C584.786 405.343 584.764 405.363 584.74 405.38L576.865 411.068C576.844 411.082 576.823 411.095 576.801 411.107L572.551 413.294 568.374 414.88 564.311 415.837C564.286 415.842 564.261 415.846 564.236 415.848L560.236 416.161C560.207 416.163 560.177 416.163 560.148 416.16L555.023 415.66C554.987 415.656 554.952 415.649 554.917 415.638L549.917 414.013C549.892 414.005 549.867 413.994 549.843 413.982L547.656 412.857C547.623 412.84 547.592 412.82 547.564 412.796L546.064 411.546C546.031 411.519 546.002 411.488 545.977 411.453L545.848 411.272 546.445 419.313 547.444 429.3 548.754 438.341 550.313 446.443C550.327 446.519 550.324 446.598 550.303 446.672L549.866 448.235C549.85 448.292 549.824 448.346 549.789 448.394L548.789 449.769C548.762 449.805 548.731 449.837 548.697 449.865L547.134 451.115C547.107 451.137 547.077 451.156 547.045 451.172L544.92 452.235C544.895 452.247 544.868 452.258 544.84 452.266L540.027 453.704C539.998 453.713 539.967 453.719 539.936 453.722L535.123 454.222C535.093 454.225 535.062 454.226 535.032 454.223L531.157 453.911C531.118 453.908 531.081 453.9 531.044 453.889L527.919 452.889C527.869 452.872 527.822 452.849 527.779 452.818L525.529 451.193C525.481 451.158 525.439 451.114 525.406 451.065L523.906 448.815C523.882 448.779 523.863 448.741 523.849 448.701L522.162 443.826 520.773 437.965 519.518 431.191 518.575 423.473 517.323 406.637 517.079 400.301 516.51 401.34 514.37 404.741 512.094 407.716 509.823 410.305 507.405 412.472 504.865 414.317 502.313 415.725C502.289 415.738 502.265 415.749 502.24 415.758L499.615 416.696 496.873 417.337C496.846 417.343 496.82 417.347 496.793 417.349L494.043 417.536C494.015 417.538 493.987 417.538 493.96 417.535L487.71 416.91C487.672 416.906 487.634 416.898 487.598 416.886L482.098 415.011C482.058 414.997 482.021 414.979 481.986 414.956L477.298 411.893C477.262 411.87 477.229 411.841 477.2 411.809L473.263 407.434C473.242 407.411 473.223 407.386 473.207 407.359L470.019 402.109C470.004 402.085 469.991 402.058 469.981 402.031L467.668 396.094 466.024 389.534 465.601 385.542 464.812 389.388 462.734 395.633C462.725 395.658 462.715 395.682 462.703 395.705L459.953 401.017C459.939 401.044 459.923 401.07 459.905 401.094L456.467 405.531C456.448 405.555 456.427 405.578 456.404 405.599L452.466 409.099C452.444 409.118 452.421 409.136 452.395 409.151L448.208 411.714C448.174 411.734 448.138 411.751 448.101 411.763L443.476 413.263C443.443 413.274 443.408 413.281 443.373 413.285L438.498 413.785C438.469 413.788 438.44 413.788 438.411 413.786L434.036 413.474 429.85 412.653C429.825 412.648 429.8 412.641 429.775 412.632L425.838 411.195C425.815 411.186 425.792 411.176 425.771 411.164L422.083 409.164C422.058 409.151 422.034 409.135 422.011 409.117L418.699 406.492C418.672 406.47 418.647 406.446 418.625 406.42L415.813 403.045C415.794 403.023 415.778 402.999 415.763 402.974L413.388 398.849C413.375 398.826 413.364 398.802 413.354 398.777L411.479 393.84 410.163 390.143C410.154 390.117 410.147 390.09 410.142 390.063L409.267 385.188 408.699 379.21 408.509 372.051 408.759 361.713 409.573 351.871 410.138 347.412 410.703 343.773 411.333 340.869 411.967 338.709C411.98 338.666 411.998 338.626 412.021 338.588L414.021 335.338C414.056 335.282 414.101 335.233 414.155 335.194L417.28 332.944C417.32 332.915 417.364 332.892 417.411 332.876L421.286 331.564C421.322 331.552 421.358 331.544 421.396 331.54L425.646 331.102C425.68 331.099 425.715 331.099 425.75 331.103L429.813 331.54C429.846 331.544 429.879 331.551 429.911 331.561L433.848 332.811C433.873 332.819 433.897 332.828 433.92 332.84L435.67 333.715C435.7 333.73 435.729 333.748 435.755 333.769L437.192 334.894C437.242 334.932 437.283 334.979 437.315 335.033L438.94 337.783C438.997 337.88 439.02 337.993 439.005 338.104L438.567 341.354 438.194 345.087 437.757 349.277 437.383 353.89 436.634 372.682 436.759 379.153 437.071 384.822 437.631 389.541 438.375 393.444 439.343 396.393 440.527 398.406 441.819 399.586 443.228 399.965 444.363 399.803 445.565 399.231 446.871 398.281 448.281 396.871 449.68 395.102 451.091 392.95 452.575 390.352 454.128 387.369 457.05 380.589 459.663 373.245 461.902 365.154 463.824 356.471 464.135 349.702 464.699 343.554 465.077 340.843 465.389 338.654 465.771 336.929 466.087 335.666C466.098 335.622 466.115 335.58 466.137 335.54L468.2 331.915C468.236 331.852 468.285 331.798 468.344 331.755L471.844 329.255C471.883 329.227 471.926 329.205 471.972 329.189L476.347 327.689C476.383 327.677 476.42 327.669 476.457 327.665L481.207 327.165C481.241 327.162 481.275 327.161 481.309 327.165L485.684 327.602C485.722 327.606 485.759 327.614 485.795 327.626L489.67 328.939C489.701 328.949 489.731 328.963 489.759 328.979L491.384 329.917C491.422 329.939 491.457 329.965 491.488 329.996L492.675 331.184C492.711 331.22 492.741 331.261 492.765 331.305L493.452 332.618C493.477 332.665 493.494 332.715 493.502 332.768L493.752 334.268C493.759 334.309 493.761 334.351 493.757 334.392L492.132 353.392 491.572 373.052 491.697 379.903 492.009 386.012 492.569 391.36 493.377 395.951 494.298 399.629 495.383 402.223 496.45 403.626 497.565 404.082 498.413 403.933 499.433 403.423 500.613 402.537 501.835 401.255 503.045 399.615 504.406 397.573 505.826 395.101 507.318 392.302 510.241 385.831 512.85 378.433 515.279 370.085 517.46 360.736C517.467 360.705 517.478 360.674 517.491 360.645L518.019 359.471 518.199 357.492 518.887 350.613 519.764 344.281 520.83 338.632 522.087 333.665C522.099 333.617 522.118 333.572 522.143 333.53L524.206 330.093C524.24 330.035 524.287 329.984 524.342 329.945L527.717 327.507C527.755 327.479 527.798 327.457 527.843 327.441L532.093 325.941C532.128 325.929 532.164 325.92 532.2 325.916L536.578 325.394C536.612 325.39 536.646 325.389 536.679 325.392Z" fill="#5B9BD5" fill-rule="evenodd"/><path d="M779.578 425.259C773.574 428.116 769.012 430.633 765.892 432.811 762.772 434.989 761.213 437.887 761.213 441.506 761.213 443.69 761.781 445.374 762.917 446.559 764.054 447.745 765.566 448.337 767.453 448.337 770.636 448.337 773.229 446.277 775.231 442.156 777.233 438.035 778.682 432.403 779.578 425.259ZM654.409 389.55C650.511 389.55 648.562 390.519 648.562 392.456 648.562 394.431 649.593 396.26 651.655 397.942 653.716 399.624 655.68 400.466 657.547 400.466 661.393 400.466 665.24 397.345 669.088 391.103 661.581 390.068 656.689 389.55 654.409 389.55ZM549.409 389.55C545.511 389.55 543.562 390.519 543.562 392.456 543.562 394.431 544.593 396.26 546.655 397.942 548.716 399.624 550.68 400.466 552.547 400.466 556.393 400.466 560.24 397.345 564.088 391.103 556.581 390.068 551.689 389.55 549.409 389.55ZM673.244 336.184C669.308 336.184 664.801 340.574 659.72 349.355 654.64 358.135 650.397 367.977 646.991 378.881 647.045 378.621 648.275 378.491 650.681 378.491 654.304 378.491 659.959 379.108 667.647 380.344L672.691 381.037C674.382 376.815 675.807 371.714 676.964 365.734 678.121 359.755 678.7 354.34 678.7 349.487 678.7 345.11 678.192 341.799 677.175 339.553 676.158 337.307 674.848 336.184 673.244 336.184ZM568.244 336.184C564.308 336.184 559.801 340.574 554.72 349.355 549.64 358.135 545.397 367.977 541.991 378.881 542.045 378.621 543.275 378.491 545.681 378.491 549.304 378.491 554.959 379.108 562.647 380.344L567.691 381.037C569.382 376.815 570.807 371.714 571.964 365.734 573.121 359.755 573.7 354.34 573.7 349.487 573.7 345.11 573.192 341.799 572.175 339.553 571.158 337.307 569.848 336.184 568.244 336.184ZM532.341 321.594C535.026 321.594 537.6 322.019 540.062 322.869 542.525 323.719 543.756 325.051 543.756 326.866 541.9 335.749 540.789 347.724 540.422 362.791 541.636 351.455 545.233 342.18 551.211 334.966 557.189 327.751 564.241 324.144 572.366 324.144 577.222 324.144 581.828 325.513 586.183 328.253 590.538 330.993 594.104 334.828 596.881 339.758 599.658 344.688 601.047 350.285 601.047 356.55 601.047 366.473 598.366 375.094 593.003 382.412 607.007 381.337 615.576 372.65 618.709 356.35L619.162 355.741 619.358 353.184C620.213 343.578 621.517 335.675 623.269 329.475 624.198 326.84 626.01 324.867 628.706 323.558 631.402 322.248 634.28 321.594 637.341 321.594 640.026 321.594 642.6 322.019 645.062 322.869 647.525 323.719 648.756 325.051 648.756 326.866 646.9 335.749 645.789 347.724 645.422 362.791 646.636 351.455 650.233 342.18 656.211 334.966 662.189 327.751 669.241 324.144 677.366 324.144 682.222 324.144 686.828 325.513 691.183 328.253 695.538 330.993 699.104 334.828 701.881 339.758 704.658 344.688 706.047 350.285 706.047 356.55 706.047 366.473 703.366 375.094 698.003 382.412 712.007 381.337 720.576 372.65 723.709 356.35 723.929 355.985 724.166 355.666 724.421 355.393L724.675 355.181 725.147 346.358C725.874 339.675 726.635 335.209 727.431 332.959 728.583 330.322 730.519 328.324 733.237 326.966 735.956 325.607 738.859 324.928 741.947 324.928 744.753 324.928 747.37 325.494 749.798 326.627 752.227 327.759 753.543 329.465 753.747 331.744 751.922 346.075 751.009 358.66 751.009 369.5 751.009 386.875 753.548 395.562 758.625 395.562 761.235 395.562 763.996 393.257 766.908 388.647 769.819 384.036 772.431 377.268 774.744 368.342 777.056 359.416 778.799 348.885 779.972 336.75 780.182 334.856 781.415 333.492 783.67 332.656 785.926 331.821 788.302 331.403 790.8 331.403 794.371 331.403 797.806 332.17 801.105 333.705 804.404 335.239 806.132 337.383 806.291 340.137 807.107 348.44 807.516 359.012 807.516 371.856L807.516 390.494C807.516 393.235 807.385 397.016 807.125 401.834 812.088 397.411 816.952 391.545 821.719 384.234 826.485 376.924 829.717 367.659 831.412 356.441 832.433 354.661 833.742 353.772 835.338 353.772 836.904 353.772 838.316 354.534 839.573 356.059 840.831 357.584 841.459 359.331 841.459 361.3 838.87 375.206 834.418 386.357 828.103 394.753 821.789 403.149 814.412 409.803 805.975 414.716 803.923 428.813 799.731 439.785 793.4 447.63 787.069 455.474 778.681 459.397 768.237 459.397 761.825 459.397 756.619 457.724 752.619 454.378 748.619 451.032 746.619 446.546 746.619 440.919 746.619 436.462 747.87 432.733 750.372 429.73 752.874 426.727 755.987 424.329 759.711 422.536 763.435 420.743 768.644 418.534 775.338 415.909L780.234 414.016C780.582 408.074 780.756 401.149 780.756 393.241 780.756 384.388 780.826 378.123 780.966 374.444 780.226 386.608 777.378 395.274 772.422 400.441 767.466 405.607 761.69 408.191 755.094 408.191 748.671 408.191 742.967 406.645 737.981 403.555 732.996 400.464 729.382 396.19 727.141 390.731 726.37 388.621 725.743 386.178 725.261 383.403L724.906 381.039 723.841 382.295C722.276 383.937 720.554 385.352 718.677 386.541 711.165 391.295 702.561 393.672 692.866 393.672L691.856 393.672C687.765 398.753 682.886 402.966 677.22 406.311 671.555 409.656 666.109 411.328 660.884 411.328 657.449 411.328 654.073 410.623 650.758 409.214 647.442 407.805 645.795 406.09 645.816 404.069 646.703 419.298 648.272 432.013 650.522 442.216 650.282 444.399 648.557 446.141 645.345 447.441 642.134 448.741 638.942 449.391 635.769 449.391 630.017 449.391 626.421 447.66 624.981 444.2 622.621 438.298 620.88 429.934 619.758 419.109 618.636 408.284 618.075 396.653 618.075 384.216L618.087 382.997 616.376 384.588C615.515 385.295 614.615 385.946 613.677 386.541 606.165 391.295 597.561 393.672 587.866 393.672L586.856 393.672C582.765 398.753 577.886 402.966 572.22 406.311 566.555 409.656 561.109 411.328 555.884 411.328 552.449 411.328 549.073 410.623 545.758 409.214 542.442 407.805 540.795 406.09 540.816 404.069 541.703 419.298 543.272 432.013 545.522 442.216 545.282 444.399 543.557 446.141 540.345 447.441 537.134 448.741 533.942 449.391 530.769 449.391 525.017 449.391 521.421 447.66 519.981 444.2 517.621 438.298 515.88 429.934 514.758 419.109 514.197 413.697 513.776 408.083 513.496 402.267L513.206 394.123 511.772 396.799C511.08 397.986 510.37 399.102 509.641 400.148 503.809 408.518 497.148 412.703 489.656 412.703 480.829 412.703 474.048 409.396 469.314 402.781 464.58 396.167 461.954 387.898 461.438 377.975 459.983 387.91 456.748 395.561 451.731 400.927 446.715 406.292 440.848 408.975 434.131 408.975 428.102 408.975 422.724 407.458 417.997 404.425 413.27 401.392 409.806 396.372 407.606 389.366 405.644 385.176 404.663 377.966 404.663 367.734 404.663 360.672 405.024 353.948 405.748 347.564 406.472 341.18 407.264 336.841 408.122 334.547 409.064 332.036 410.779 330.198 413.267 329.033 415.756 327.867 418.459 327.284 421.378 327.284 424.099 327.284 426.761 327.836 429.364 328.941 431.967 330.045 433.569 331.63 434.169 333.697 433.608 337.749 433.076 343.021 432.572 349.514 432.068 356.007 431.816 362.276 431.816 368.322 431.816 386.874 434.157 396.15 438.841 396.15 442.284 396.15 446.092 391.853 450.264 383.259 454.436 374.666 457.68 364.323 459.997 352.231 460.13 347.479 460.427 343.163 460.886 339.283 461.345 335.403 461.798 332.796 462.244 331.462 463.173 328.671 465.02 326.622 467.786 325.317 470.552 324.012 473.591 323.359 476.903 323.359 479.97 323.359 482.737 323.935 485.206 325.087 487.675 326.24 488.909 327.893 488.909 330.047 487.47 342.466 486.75 355.355 486.75 368.716 486.75 378.351 487.344 386.019 488.531 391.719 489.719 397.419 491.271 400.269 493.188 400.269 495.981 400.269 499.399 396.258 503.442 388.236 507.485 380.214 510.868 369.653 513.591 356.553L514.197 355.291 514.358 353.184C515.213 343.578 516.517 335.675 518.269 329.475 519.198 326.84 521.01 324.867 523.706 323.558 526.402 322.248 529.28 321.594 532.341 321.594Z" stroke="#FFFFFF" stroke-linejoin="round" stroke-miterlimit="10" fill="#452F07" fill-rule="evenodd"/><text fill="#000000" fill-opacity="0" font-family="Arial,Arial_MSFontService,sans-serif" font-size="137.803" x="404.663" y="442.171">uppy</text><g clip-path="url(#clip1)"><g clip-path="url(#clip2)"><g clip-path="url(#clip3)"><path d="M38.7 12.1 34.5 6 34.5 4.2C34.5 3.75 33.95 3.55 33.65 3.85L26.75 10.3C25.95 11.05 25.5 12.1 25.5 13.2L25.5 13.5C25.5 17.75 14 19.5 14 33 14 34.8 14.1 36.35 14.35 37.65 14.25 37.55 14.15 37.45 14 37.35 12.85 36.25 11.5 33.8 11.5 28.5 11.5 26.65 12.4 24.75 13.3 22.95 14.7 20.05 16.3 16.75 13.55 13.95 12.95 13.35 12 13.35 11.45 13.95 10.85 14.55 10.85 15.5 11.45 16.05 12.6 17.2 12.1 18.55 10.65 21.6 9.6 23.65 8.5 26 8.5 28.5 8.5 33.65 9.7 37.4 12 39.6 13.2 40.75 14.5 41.2 15.4 41.4 16.35 43.4 17.5 44 18 44L24 44C24.85 44 25.5 43.35 25.5 42.5 25.5 41.75 24.95 41.1 24.2 41L22.5 41C24.4 39.95 26 37.8 26 34 26 30.7 25.35 29.35 23.15 28.15 22.8 27.95 22.65 27.5 22.85 27.15 23.05 26.8 23.5 26.65 23.85 26.85 26.9 28.45 27.5 30.7 27.5 34 27.5 35.8 27.15 37.4 26.5 38.75L26.5 42.5C26.5 43.35 27.15 44 28 44 28.85 44 29.5 43.35 29.5 42.5L29.5 37.9C29.85 37.5 30.2 37.05 30.5 36.55L30.5 42.5C30.5 43.35 31.15 44 32 44 32.85 44 33.5 43.35 33.5 42.5L33.5 29.2C33.85 27.7 34 26.4 34 25.5 34 21.55 33 21.15 33 19 33 17.9 33.9 17 35 17 37.2 17 39 15.2 39 13 39 12.65 38.9 12.35 38.7 12.1Z" fill="#E98F4B" transform="matrix(-1 0 0 1.125 816 283)"/></g></g></g><g clip-path="url(#clip4)"><g clip-path="url(#clip5)"><g clip-path="url(#clip6)"><path d="M324.487 318.294 322.657 318.016C320.661 318.837 318.537 319.263 316.377 319.31L316.294 319.859C316.058 321.415 317.067 322.785 318.622 323.02L323.655 323.783C325.21 324.019 326.58 323.01 326.816 321.455 327.052 319.899 326.043 318.529 324.487 318.294Z" fill="#ED7D31"/><path d="M348.706 302.403C345.927 302.824 343.188 301.754 341.572 299.449L335.498 291.976C330.912 286.414 322.902 284.918 316.641 288.556 314.77 285.464 315.746 281.493 318.838 279.622 320.18 278.796 321.713 278.561 323.177 278.783 324.733 279.018 326.103 278.009 326.339 276.454 326.574 274.898 325.565 273.529 324.01 273.293 317.422 272.294 311.31 276.796 310.312 283.384 309.826 286.586 310.635 289.891 312.59 292.434 310.97 295.09 310.668 298.32 311.729 301.196L312.572 303.664C313.237 305.449 313.6 307.376 313.583 309.339L313.55 310.177C313.508 310.451 313.572 310.648 313.439 310.909L309.646 313.703C309.013 314.169 308.642 314.768 308.531 315.5L307.227 324.1C306.991 325.656 308 327.026 309.555 327.262L314.588 328.025C316.143 328.26 317.513 327.251 317.749 325.696 317.985 324.141 316.976 322.771 315.42 322.535L313.133 322.188 313.868 317.339C317.985 317.963 322.183 316.821 325.478 314.232L327.307 317.598C329.201 321.161 332.436 323.898 336.301 324.952 337.751 325.266 338.816 326.269 339.248 327.739L339.667 329.3C339.669 330.517 340.354 331.557 341.41 331.998L357.325 338.155C358.747 338.652 360.35 337.959 360.938 336.55 361.434 335.128 360.741 333.525 359.319 333.029L350.136 329.39 351.32 327.136 363.409 330.747C364.845 331.152 366.384 330.262 366.789 328.826 367.194 327.39 366.396 325.865 364.959 325.46L353.85 322.184 353.877 322.001 353.891 321.91 359.06 317.452 363.59 320.291C366.831 322.374 371.185 321.443 373.267 318.202L373.4 317.941 370.858 313.718C372.123 309.698 370.629 305.353 367.036 303.123L363.817 301.512C363.035 301.113 362.317 300.91 361.494 300.785L361.036 300.716C360.945 300.702 360.762 300.674 360.67 300.66L358.061 304.29C357.717 304.706 357.542 305.241 357.55 305.803 357.517 306.641 357.941 307.548 358.709 308.038 358.878 308.158 359.047 308.277 359.23 308.305 359.843 308.585 360.603 308.513 361.193 308.321 361.692 308.116 362.128 307.714 362.472 307.298 362.724 306.869 363.301 306.769 363.73 307.021 364.16 307.274 364.26 307.85 364.008 308.28 364.008 308.28 364.008 308.28 364.008 308.28 363.531 308.957 362.779 309.592 361.978 309.938 361.176 310.285 360.417 310.357 359.579 310.323 359.213 310.268 358.939 310.226 358.587 310.079 358.235 309.932 357.883 309.785 357.636 309.56 356.466 308.634 355.823 307.32 355.77 305.814 355.817 304.885 356.139 303.998 356.63 303.23L358.405 300.785C358.208 300.849 358.025 300.821 357.737 300.871L348.706 302.403ZM354.41 317.87 348.669 305.112C348.669 305.112 348.761 305.126 348.761 305.126 348.958 305.062 349.246 305.012 349.443 304.949L351.553 304.613 356.665 315.965 354.41 317.87Z" fill="#ED7D31"/></g></g></g><path d="M862.106 287.305C866.793 287.305 870.465 288.297 873.121 290.282 875.778 292.266 877.106 294.461 877.106 296.868 877.106 298.774 876.504 300.328 875.301 301.532 874.098 302.735 872.512 303.336 870.543 303.336 869.762 303.336 869.004 303.219 868.27 302.985 867.535 302.75 866.84 302.399 866.184 301.93 865.715 301.618 864.918 300.836 863.793 299.586 862.723 298.43 862 297.743 861.622 297.524 861.15 297.243 860.71 297.102 860.301 297.102 859.231 297.102 858.389 297.594 857.776 298.578 857.162 299.563 856.856 301.524 856.856 304.461L856.856 309.336 864.449 309.336 864.449 319.227 856.856 319.227 856.856 342.188C856.856 344.034 856.934 345.145 857.09 345.521 857.309 346.053 857.668 346.444 858.168 346.695 858.668 346.945 859.699 347.071 861.262 347.071L863.887 347.071 863.887 356.118 834.965 356.118 834.965 347.071 837.262 347.071C839.137 347.071 840.278 346.977 840.684 346.789 841.09 346.601 841.395 346.265 841.598 345.779 841.801 345.294 841.903 344.097 841.903 342.188L841.903 319.227 834.965 319.227 834.965 309.336 841.903 309.336 841.903 304.461C841.903 300.993 842.512 298.196 843.731 296.071 845.168 293.477 847.481 291.368 850.668 289.743 853.856 288.118 857.668 287.305 862.106 287.305Z" fill="#5B9BD5" fill-rule="evenodd"/><path d="M862.117 287.806 856.042 288.422 850.91 290.193 846.904 292.925 844.187 296.366 842.863 299.918 842.434 304.493 842.434 309.368C842.434 309.644 842.21 309.868 841.934 309.868L835.496 309.868 835.496 318.743 841.934 318.743C842.21 318.743 842.434 318.966 842.434 319.243L842.434 342.256 842.371 344.569C842.37 344.597 842.367 344.625 842.362 344.653L842.112 345.903C842.093 345.994 842.05 346.079 841.986 346.147L841.049 347.147C840.98 347.22 840.89 347.271 840.792 347.293L839.667 347.543C839.636 347.55 839.604 347.554 839.573 347.555L837.309 347.618 835.496 347.618 835.496 355.618 863.434 355.618 863.434 347.617 861.293 347.617 859.355 347.555C859.318 347.554 859.28 347.548 859.244 347.539L858.057 347.226C857.962 347.201 857.876 347.149 857.811 347.076L856.749 345.888C856.685 345.818 856.644 345.731 856.628 345.637L856.434 344.444 856.371 342.243 856.371 319.243C856.371 318.966 856.595 318.743 856.871 318.743L863.996 318.743 863.996 309.868 856.871 309.868C856.595 309.868 856.371 309.644 856.371 309.368L856.372 304.459 856.622 300.771C856.625 300.732 856.632 300.693 856.644 300.655L857.332 298.468C857.354 298.395 857.393 298.329 857.445 298.274L858.508 297.149C858.572 297.081 858.654 297.032 858.745 297.009L860.183 296.634C860.276 296.609 860.375 296.613 860.467 296.643L861.779 297.081C861.834 297.099 861.885 297.126 861.93 297.162L862.805 297.849C862.824 297.864 862.842 297.88 862.858 297.897L864.17 299.272 865.574 300.74 866.464 301.511 868.465 302.512 870.56 302.861 873.059 302.454 874.948 301.194 876.208 299.304 876.615 296.862 876.386 295.257 875.691 293.692 874.507 292.213 872.823 290.709 870.717 289.446 868.237 288.538 865.406 287.992ZM862.134 286.806 865.462 286.993 868.465 287.564C868.492 287.569 868.518 287.576 868.543 287.585L871.106 288.523C871.135 288.534 871.164 288.547 871.191 288.564L873.379 289.876C873.405 289.892 873.431 289.911 873.454 289.932L875.204 291.495C875.225 291.513 875.244 291.533 875.262 291.555L876.512 293.118C876.538 293.151 876.561 293.188 876.578 293.227L877.328 294.914C877.347 294.957 877.36 295.001 877.366 295.047L877.616 296.797C877.623 296.848 877.623 296.899 877.614 296.95L877.177 299.575C877.165 299.645 877.139 299.711 877.1 299.77L875.725 301.832C875.688 301.887 875.641 301.934 875.586 301.971L873.524 303.346C873.464 303.386 873.397 303.412 873.327 303.424L870.639 303.861C870.585 303.87 870.53 303.87 870.477 303.861L868.227 303.486C868.177 303.478 868.13 303.462 868.085 303.44L865.96 302.377C865.923 302.359 865.888 302.335 865.856 302.308L864.919 301.495 863.448 299.963 862.159 298.614 861.381 298.002 860.291 297.639 859.136 297.94 858.251 298.877 857.616 300.898 857.37 304.526 857.371 308.868 864.496 308.868C864.772 308.868 864.996 309.091 864.996 309.368L864.996 319.243C864.996 319.519 864.772 319.743 864.496 319.743L857.371 319.743 857.371 342.243 857.434 344.416 857.59 345.329 858.456 346.297 859.444 346.557 861.325 346.618 863.934 346.618C864.21 346.618 864.434 346.841 864.434 347.118L864.434 356.118C864.434 356.394 864.21 356.618 863.934 356.618L834.996 356.618C834.72 356.618 834.496 356.394 834.496 356.118L834.496 347.118C834.496 346.841 834.72 346.618 834.996 346.618L837.309 346.618 839.497 346.557 840.425 346.35 841.159 345.567 841.373 344.499 841.434 342.229 841.434 319.743 834.996 319.743C834.72 319.743 834.496 319.519 834.496 319.243L834.496 309.368C834.496 309.091 834.72 308.868 834.996 308.868L841.434 308.868 841.434 304.493 841.873 299.759C841.878 299.715 841.887 299.672 841.903 299.63L843.278 295.943C843.296 295.894 843.322 295.849 843.354 295.808L846.166 292.245C846.198 292.205 846.235 292.171 846.277 292.142L850.402 289.329C850.439 289.304 850.479 289.284 850.521 289.27L855.771 287.457C855.807 287.445 855.845 287.436 855.883 287.433L862.055 286.808C862.081 286.805 862.108 286.804 862.134 286.806Z" fill="#5B9BD5" fill-rule="evenodd"/><path d="M859.424 284.623C864.111 284.623 867.783 285.615 870.439 287.6 873.096 289.584 874.424 291.779 874.424 294.186 874.424 296.092 873.822 297.647 872.619 298.85 871.416 300.053 869.83 300.654 867.861 300.654 867.08 300.654 866.322 300.537 865.588 300.303 864.854 300.069 864.158 299.717 863.502 299.248 863.033 298.936 862.236 298.154 861.111 296.904 860.042 295.748 859.318 295.061 858.94 294.842 858.468 294.561 858.028 294.42 857.619 294.42 856.549 294.42 855.708 294.912 855.094 295.897 854.481 296.881 854.174 298.842 854.174 301.779L854.174 306.654 861.768 306.654 861.768 316.545 854.174 316.545 854.174 339.506C854.174 341.352 854.252 342.464 854.408 342.839 854.627 343.371 854.986 343.763 855.486 344.013 855.986 344.264 857.018 344.389 858.58 344.389L861.205 344.389 861.205 353.436 832.283 353.436 832.283 344.389 834.58 344.389C836.455 344.389 837.596 344.295 838.002 344.107 838.408 343.919 838.713 343.583 838.916 343.098 839.119 342.612 839.221 341.415 839.221 339.506L839.221 316.545 832.283 316.545 832.283 306.654 839.221 306.654 839.221 301.779C839.221 298.311 839.83 295.514 841.049 293.389 842.486 290.795 844.799 288.686 847.986 287.061 851.174 285.436 854.986 284.623 859.424 284.623Z" stroke="#FFFFFF" stroke-linejoin="round" stroke-miterlimit="10" fill="#452F07" fill-rule="evenodd"/><text fill="#000000" fill-opacity="0" font-family="Arial,Arial_MSFontService,sans-serif" font-size="68.8125" x="832.283" y="344.834">f</text><path d="M896.627 363.087C893.745 364.458 891.555 365.666 890.057 366.711 888.56 367.757 887.811 369.148 887.811 370.885 887.811 371.933 888.084 372.742 888.63 373.311 889.175 373.88 889.901 374.164 890.807 374.164 892.335 374.164 893.579 373.175 894.54 371.197 895.501 369.219 896.197 366.516 896.627 363.087ZM878.564 314.928C879.911 314.928 881.167 315.199 882.333 315.743 883.498 316.286 884.13 317.105 884.228 318.199 883.352 325.078 882.914 331.119 882.914 336.322 882.914 344.662 884.132 348.832 886.569 348.832 887.822 348.832 889.148 347.726 890.545 345.513 891.943 343.3 893.196 340.051 894.306 335.766 895.416 331.482 896.253 326.427 896.816 320.602 896.917 319.693 897.509 319.038 898.591 318.637 899.674 318.236 900.814 318.036 902.013 318.036 903.727 318.036 905.376 318.404 906.96 319.14 908.543 319.877 909.373 320.906 909.449 322.228 909.841 326.213 910.037 331.288 910.037 337.453L910.037 346.399C910.037 347.715 909.974 349.53 909.849 351.843 912.231 349.72 914.566 346.904 916.854 343.395 919.142 339.886 920.693 335.439 921.507 330.054 921.997 329.2 922.625 328.773 923.391 328.773 924.143 328.773 924.821 329.139 925.424 329.871 926.028 330.603 926.33 331.441 926.33 332.386 925.087 339.061 922.95 344.414 919.919 348.444 916.888 352.474 913.347 355.668 909.297 358.026 908.312 364.793 906.3 370.059 903.261 373.824 900.222 377.59 896.196 379.473 891.183 379.473 888.105 379.473 885.606 378.67 883.686 377.064 881.766 375.458 880.806 373.304 880.806 370.603 880.806 368.464 881.407 366.674 882.608 365.232 883.809 363.791 885.303 362.64 887.091 361.779 888.878 360.919 891.378 359.859 894.591 358.599L896.942 357.69C897.109 354.838 897.192 351.514 897.192 347.718 897.192 343.469 897.226 340.461 897.293 338.695 896.938 344.534 895.571 348.694 893.192 351.174 890.813 353.654 888.04 354.894 884.874 354.894 881.791 354.894 879.053 354.152 876.66 352.668 874.267 351.185 872.533 349.133 871.457 346.513 870.47 343.812 869.976 339.976 869.976 335.004 869.976 331.685 870.151 328.421 870.5 325.214 870.849 322.006 871.214 319.863 871.596 318.783 872.149 317.517 873.078 316.558 874.383 315.906 875.688 315.254 877.082 314.928 878.564 314.928Z" fill="#5B9BD5" fill-rule="evenodd"/><path d="M895.96 363.993 893.038 365.499 890.382 367.13 888.891 368.794 888.379 370.955 888.541 372.138 889.057 373.015 889.807 373.516 890.762 373.666 892.623 373.009 894.113 371.004 895.324 367.614ZM896.398 362.642C896.566 362.555 896.77 362.571 896.923 362.684 897.076 362.796 897.152 362.986 897.119 363.173L896.301 367.829C896.296 367.857 896.289 367.884 896.28 367.911L895.03 371.411C895.013 371.457 894.99 371.501 894.96 371.541L893.335 373.728C893.276 373.808 893.194 373.868 893.1 373.902L890.975 374.652C890.897 374.679 890.813 374.687 890.731 374.674L889.543 374.486C889.472 374.475 889.404 374.449 889.344 374.409L888.406 373.784C888.344 373.742 888.291 373.686 888.253 373.621L887.628 372.559C887.594 372.501 887.572 372.438 887.563 372.373L887.376 370.998C887.368 370.937 887.371 370.875 887.385 370.815L887.947 368.44C887.966 368.359 888.006 368.283 888.061 368.221L889.686 366.409C889.719 366.373 889.756 366.342 889.797 366.316L892.58 364.611ZM878.562 315.431 876.553 315.669 874.675 316.374 873.11 317.533 872.084 319.015 871.86 319.911 871.554 321.311 871.306 323.112 871.058 325.271 870.496 335.037 870.62 338.515 870.862 341.586 871.353 344.171 871.96 346.355 874.007 349.727 876.952 352.252 880.693 353.881 884.939 354.427 887.141 354.188 889.164 353.534 891.078 352.398 892.877 350.839 894.374 348.802 895.583 346.082 896.374 342.751 896.812 338.689C896.841 338.421 897.077 338.224 897.346 338.244 897.614 338.264 897.819 338.493 897.808 338.763L897.746 340.305 897.746 342.305 897.746 344.805 897.746 347.748 897.683 353.138 897.496 357.763C897.488 357.965 897.359 358.142 897.169 358.212L894.812 359.08 890.574 360.825 887.379 362.234 884.928 363.704 883.021 365.551 881.727 367.845 881.316 370.603 882.025 374.03 884.079 376.729 887.156 378.386 891.195 378.989 894.707 378.625 897.782 377.661 900.496 375.912 902.921 373.547 904.934 370.498 906.581 366.97 907.88 362.772 908.818 357.959C908.842 357.836 908.911 357.727 909.012 357.652L914.661 353.494 919.536 348.186 921.606 344.969 923.335 341.27 924.76 337.065 925.86 332.419 925.646 331.295 925.043 330.253 924.251 329.567 923.434 329.326 922.653 329.556 922.017 330.289 920.295 337.607C920.287 337.644 920.274 337.68 920.257 337.714L917.319 343.652C917.307 343.677 917.293 343.701 917.276 343.723L913.839 348.473C913.825 348.492 913.81 348.51 913.793 348.527L910.231 352.215C910.087 352.364 909.865 352.409 909.674 352.327 909.484 352.246 909.363 352.054 909.372 351.847L909.496 348.792 909.559 346.43 909.559 337.5 909.496 333.063 909.434 329.081 909.248 325.469 909.004 322.356 908.397 320.812 906.765 319.63 904.448 318.858 902.073 318.561 898.81 319.154 897.768 319.831 897.358 320.754 896.298 328.91 894.786 335.954 893.036 341.579C893.029 341.602 893.02 341.626 893.009 341.648L891.009 345.773C890.997 345.797 890.984 345.819 890.969 345.841L889.969 347.278C889.955 347.298 889.94 347.317 889.923 347.335L888.923 348.398C888.893 348.429 888.86 348.456 888.824 348.479L887.824 349.104C887.773 349.136 887.716 349.158 887.657 349.17L886.719 349.358C886.652 349.371 886.583 349.371 886.516 349.356L885.641 349.169C885.562 349.152 885.488 349.116 885.426 349.064L884.676 348.439C884.639 348.408 884.607 348.372 884.58 348.332L883.955 347.395C883.933 347.362 883.915 347.326 883.901 347.288L883.386 345.864 882.937 344.049 882.685 341.842 882.496 339.316 882.434 336.349 882.749 327.879 883.736 318.312 883.266 317.11 882.131 316.192 880.452 315.671ZM878.505 314.431C878.545 314.426 878.586 314.426 878.627 314.431L880.622 314.684C880.651 314.688 880.679 314.694 880.707 314.702L882.519 315.265C882.58 315.284 882.637 315.314 882.686 315.354L883.998 316.416C884.066 316.471 884.118 316.542 884.149 316.623L884.712 318.06C884.741 318.135 884.752 318.215 884.744 318.294L883.744 327.981 883.433 336.386 883.496 339.294 883.682 341.768 883.931 343.936 884.356 345.621 884.82 346.89 885.372 347.717 885.972 348.217 886.625 348.357 887.371 348.208 888.239 347.665 889.169 346.677 890.126 345.302 892.092 341.246 893.831 335.656 895.32 328.7 896.375 320.553C896.382 320.505 896.395 320.459 896.414 320.414L896.914 319.289C896.954 319.201 897.018 319.126 897.099 319.073L898.349 318.261C898.404 318.225 898.467 318.2 898.532 318.188L901.969 317.563C902.019 317.554 902.07 317.553 902.121 317.559L904.621 317.871C904.653 317.875 904.686 317.883 904.717 317.893L907.154 318.706C907.203 318.722 907.248 318.745 907.29 318.775L909.102 320.088C909.179 320.144 909.239 320.221 909.274 320.31L909.962 322.06C909.98 322.106 909.991 322.154 909.995 322.203L910.245 325.391 910.433 329.029 910.496 333.047 910.559 337.485 910.559 346.43 910.496 348.818 910.424 350.575 913.049 347.858 916.442 343.171 919.335 337.322 921.072 329.94C921.091 329.862 921.128 329.789 921.181 329.728L921.993 328.79C922.056 328.718 922.138 328.665 922.23 328.638L923.293 328.325C923.385 328.298 923.483 328.298 923.575 328.325L924.637 328.638C924.706 328.658 924.77 328.693 924.824 328.74L925.761 329.552C925.803 329.589 925.839 329.632 925.866 329.68L926.554 330.867C926.582 330.916 926.602 330.969 926.612 331.024L926.862 332.336C926.876 332.406 926.874 332.477 926.858 332.545L925.733 337.295 924.282 341.59 922.512 345.391 920.355 348.762C920.339 348.787 920.321 348.81 920.302 348.831L915.365 354.206C915.343 354.229 915.319 354.251 915.293 354.27L909.762 358.342 908.862 362.963 907.536 367.265 905.825 370.954C905.814 370.976 905.802 370.997 905.789 371.018L903.726 374.143C903.706 374.173 903.683 374.201 903.658 374.226L901.158 376.663C901.134 376.686 901.108 376.707 901.08 376.725L898.267 378.538C898.229 378.562 898.189 378.581 898.146 378.595L894.958 379.595C894.926 379.605 894.894 379.611 894.86 379.615L891.235 379.99C891.194 379.994 891.151 379.993 891.11 379.987L886.922 379.362C886.865 379.354 886.81 379.335 886.759 379.308L883.509 377.558C883.446 377.524 883.392 377.477 883.348 377.42L881.161 374.545C881.116 374.486 881.084 374.417 881.069 374.344L880.319 370.719C880.307 370.661 880.306 370.602 880.314 370.544L880.752 367.606C880.761 367.546 880.781 367.488 880.811 367.434L882.186 364.997C882.209 364.955 882.239 364.917 882.273 364.883L884.273 362.946C884.301 362.919 884.331 362.896 884.364 362.876L886.864 361.376 890.169 359.91 894.431 358.155 896.51 357.389 896.684 353.097 896.746 347.737 896.746 345.503 896.545 346.358C896.538 346.388 896.528 346.417 896.516 346.446L895.266 349.258C895.251 349.291 895.233 349.322 895.212 349.351L893.649 351.476C893.627 351.506 893.602 351.534 893.574 351.558L891.699 353.183C891.676 353.202 891.652 353.22 891.627 353.235L889.627 354.422C889.595 354.441 889.561 354.457 889.525 354.468L887.4 355.156C887.368 355.166 887.334 355.173 887.3 355.177L884.987 355.427C884.948 355.431 884.909 355.431 884.87 355.426L880.495 354.863C880.448 354.857 880.402 354.845 880.359 354.826L876.484 353.138C876.439 353.119 876.396 353.092 876.358 353.06L873.296 350.435C873.256 350.4 873.221 350.36 873.194 350.315L871.069 346.815C871.045 346.775 871.027 346.733 871.015 346.689L870.39 344.439 869.88 341.774 869.623 338.595 869.497 335.073 870.06 325.214 870.312 322.998 870.563 321.174 870.883 319.699 871.136 318.684C871.151 318.625 871.176 318.57 871.21 318.52L872.335 316.895C872.366 316.85 872.405 316.811 872.449 316.778L874.136 315.528C874.174 315.501 874.215 315.478 874.258 315.462L876.258 314.712C876.296 314.698 876.335 314.688 876.375 314.684Z" fill="#5B9BD5" fill-rule="evenodd"/><path d="M893.945 360.405C891.063 361.776 888.873 362.984 887.376 364.029 885.878 365.075 885.129 366.466 885.129 368.203 885.129 369.251 885.402 370.06 885.948 370.629 886.493 371.198 887.219 371.482 888.125 371.482 889.653 371.482 890.897 370.493 891.858 368.515 892.819 366.537 893.515 363.834 893.945 360.405ZM875.882 312.246C877.229 312.246 878.485 312.517 879.651 313.061 880.816 313.604 881.448 314.423 881.546 315.517 880.67 322.396 880.232 328.437 880.232 333.64 880.232 341.98 881.45 346.15 883.887 346.15 885.14 346.15 886.466 345.044 887.863 342.831 889.261 340.618 890.514 337.369 891.624 333.084 892.734 328.8 893.571 323.745 894.134 317.92 894.235 317.011 894.827 316.356 895.909 315.955 896.992 315.554 898.132 315.354 899.331 315.354 901.045 315.354 902.694 315.722 904.278 316.458 905.861 317.195 906.691 318.224 906.767 319.546 907.159 323.531 907.355 328.606 907.355 334.771L907.355 343.717C907.355 345.033 907.292 346.848 907.167 349.161 909.549 347.038 911.884 344.222 914.172 340.713 916.46 337.204 918.011 332.757 918.825 327.372 919.315 326.518 919.943 326.091 920.709 326.091 921.461 326.091 922.139 326.457 922.743 327.189 923.346 327.921 923.648 328.759 923.648 329.704 922.405 336.379 920.268 341.732 917.237 345.762 914.206 349.792 910.665 352.986 906.615 355.344 905.63 362.111 903.618 367.377 900.579 371.142 897.54 374.908 893.514 376.791 888.501 376.791 885.423 376.791 882.924 375.988 881.004 374.382 879.084 372.776 878.124 370.622 878.124 367.921 878.124 365.782 878.725 363.992 879.926 362.55 881.127 361.109 882.621 359.958 884.409 359.097 886.196 358.237 888.696 357.177 891.909 355.917L894.26 355.008C894.427 352.156 894.51 348.832 894.51 345.036 894.51 340.787 894.544 337.779 894.611 336.013 894.256 341.852 892.889 346.012 890.51 348.492 888.131 350.972 885.358 352.212 882.192 352.212 879.109 352.212 876.371 351.47 873.978 349.986 871.585 348.503 869.851 346.451 868.775 343.831 867.788 341.13 867.294 337.294 867.294 332.322 867.294 329.003 867.469 325.739 867.818 322.532 868.167 319.324 868.532 317.181 868.914 316.101 869.467 314.835 870.396 313.876 871.701 313.224 873.006 312.572 874.4 312.246 875.882 312.246Z" stroke="#FFFFFF" stroke-linejoin="round" stroke-miterlimit="10" fill="#452F07" fill-rule="evenodd"/><text fill="#000000" fill-opacity="0" font-family="Arial,Arial_MSFontService,sans-serif" font-size="64.545" x="867.294" y="368.723">y</text></g></svg>